<?xml version="1.0" encoding="UTF-8" standalone="no"?><!DOCTYPE svg PUBLIC "-//W3C//DTD SVG 1.1//EN" "http://www.w3.org/Graphics/SVG/1.1/DTD/svg11.dtd"><svg width="100%" height="100%" viewBox="0 0 1667 500" version="1.1" xmlns="http://www.w3.org/2000/svg" xmlns:xlink="http://www.w3.org/1999/xlink" xml:space="preserve" xmlns:serif="http://www.serif.com/" style="fill-rule:evenodd;clip-rule:evenodd;stroke-linecap:round;stroke-linejoin:round;stroke-miterlimit:1.5;"><path d="M23.552,279.167l1426.81,-0" style="fill:none;stroke:#00b4ff;stroke-width:8.33px;"/><g><path d="M66.586,338.547c10.782,0 20.229,2.192 28.341,6.575c8.111,4.383 14.46,10.555 19.044,18.516c4.585,7.96 6.878,17.231 6.878,27.811c-0,10.58 -2.293,19.826 -6.878,27.736c-4.584,7.91 -10.933,14.082 -19.044,18.515c-8.112,4.434 -17.559,6.651 -28.341,6.651l-32.345,-0l-0.151,-4.535l32.496,0c8.666,0 16.199,-2.015 22.597,-6.045c6.399,-4.031 11.387,-9.674 14.964,-16.929c3.577,-7.255 5.366,-15.719 5.366,-25.393c-0,-9.673 -1.789,-18.138 -5.366,-25.393c-3.577,-7.255 -8.59,-12.898 -15.039,-16.928c-6.449,-4.031 -13.956,-6.046 -22.522,-6.046l-34.008,-0l0,-4.535l34.008,0Zm-29.776,0l0,105.804l-9.824,-0l-0,-105.804l9.824,0Zm-9.371,94.77l0,11.034l-12.092,-0l0,-1.512l1.965,0c2.62,0 4.862,-0.932 6.726,-2.796c1.864,-1.864 2.847,-4.106 2.948,-6.726l0.453,0Zm0,-83.736l-0.453,0c-0,-2.62 -0.958,-4.862 -2.872,-6.726c-1.915,-1.864 -4.182,-2.796 -6.802,-2.796l-1.814,-0l-0.151,-1.512l12.092,0l0,11.034Z" style="fill-rule:nonzero;"/><path d="M235.016,338.547l-0,105.804l-9.825,-0l0,-105.804l9.825,0Zm40.81,101.118l-0,4.686l-41.264,-0l0,-4.686l41.264,0Zm-6.5,-49.727l0,4.534l-34.764,0l0,-4.534l34.764,-0Zm6.5,-51.391l-0,4.686l-41.264,-0l0,-4.686l41.264,0Zm9.22,81.318l-8.767,24.486l-25.09,-0l5.441,-4.686c5.34,0 9.699,-0.831 13.074,-2.494c3.376,-1.662 6.122,-4.005 8.238,-7.028c2.116,-3.023 3.98,-6.449 5.592,-10.278l1.512,-0Zm-15.72,-25.695l0,9.976l-1.511,-0l-0,-2.268c-0,-2.015 -0.706,-3.753 -2.116,-5.214c-1.411,-1.461 -3.124,-2.192 -5.139,-2.192l-0,-0.302l8.766,-0Zm0,-13.906l0,9.976l-8.766,-0l-0,-0.302c2.015,-0.101 3.728,-0.882 5.139,-2.343c1.41,-1.461 2.116,-3.199 2.116,-5.215l-0,-2.116l1.511,0Zm6.5,-37.485l-0,12.092l-1.512,0l0,-2.72c0,-2.419 -0.856,-4.51 -2.569,-6.273c-1.713,-1.763 -3.829,-2.696 -6.349,-2.796l0,-0.303l10.43,0Zm-0,-6.952l-0,4.383l-18.44,-1.663c2.216,0 4.559,-0.151 7.028,-0.453c2.469,-0.303 4.761,-0.655 6.877,-1.058c2.116,-0.403 3.628,-0.806 4.535,-1.209Zm-50.181,97.49l-0,11.034l-12.092,-0l-0,-1.512l1.965,0c2.619,0 4.862,-0.932 6.726,-2.796c1.864,-1.864 2.846,-4.106 2.947,-6.726l0.454,0Zm-0,-83.736l-0.454,0c0,-2.62 -0.957,-4.862 -2.872,-6.726c-1.914,-1.864 -4.182,-2.796 -6.801,-2.796l-1.814,-0l-0.151,-1.512l12.092,0l-0,11.034Z" style="fill-rule:nonzero;"/><path d="M388.481,336.28l87.817,93.712l1.361,16.475l-87.817,-93.561l-1.361,-16.626Zm0.303,97.339l-0,10.732l-12.546,-0l0,-1.512l2.872,0c2.519,0 4.686,-0.906 6.499,-2.72c1.814,-1.814 2.721,-3.98 2.721,-6.5l0.454,0Zm6.499,0c-0,2.52 0.907,4.686 2.721,6.5c1.813,1.814 3.98,2.72 6.499,2.72l2.872,0l-0,1.512l-12.546,-0l0,-10.732l0.454,0Zm-6.802,-97.339l6.651,8.464l0.151,99.607l-6.953,-0l0,-89.177c0,-5.14 -0.227,-9.573 -0.68,-13.302c-0.453,-3.728 -0.68,-5.592 -0.68,-5.592l1.511,0Zm89.178,2.267l-0,88.573c-0,3.225 0.1,6.323 0.302,9.296c0.201,2.972 0.428,5.391 0.68,7.255c0.252,1.864 0.378,2.796 0.378,2.796l-1.36,-0l-6.802,-8.011l-0,-99.909l6.802,0Zm12.092,0l-0,1.512l-2.721,-0c-2.519,-0 -4.686,0.881 -6.5,2.645c-1.813,1.763 -2.771,3.955 -2.871,6.575l-0.454,-0l0,-10.732l12.546,0Zm-31.137,0l12.545,0l0,10.732l-0.302,-0c-0.101,-2.62 -1.033,-4.812 -2.796,-6.575c-1.764,-1.764 -3.955,-2.645 -6.575,-2.645l-2.872,-0l-0,-1.512Z" style="fill-rule:nonzero;"/><path d="M627.497,339.001l-0,105.35l-9.825,-0l0,-105.35l9.825,-0Zm38.845,-0.605l-0,4.535l-87.515,-0l-0,-4.535l87.515,0Zm-0,4.081l-0,12.243l-1.512,-0.151l0,-2.57c0,-2.519 -0.881,-4.635 -2.645,-6.348c-1.763,-1.713 -3.854,-2.62 -6.272,-2.72l-0,-0.454l10.429,0Zm-0,-6.802l-0,4.384l-18.44,-1.663c2.217,0 4.559,-0.151 7.028,-0.453c2.469,-0.303 4.761,-0.655 6.877,-1.058c2.116,-0.403 3.628,-0.807 4.535,-1.21Zm-48.217,97.642l0,11.034l-12.091,-0l-0,-1.512l1.965,0c2.619,0 4.861,-0.932 6.726,-2.796c1.864,-1.864 2.846,-4.106 2.947,-6.726l0.453,0Zm8.918,0l0.454,0c0.1,2.62 1.083,4.862 2.947,6.726c1.864,1.864 4.106,2.796 6.726,2.796l1.965,0l0,1.512l-12.092,-0l0,-11.034Zm-37.787,-90.84l0,0.454c-2.519,0.1 -4.635,1.007 -6.348,2.72c-1.713,1.713 -2.57,3.829 -2.57,6.348l0,2.57l-1.511,0.151l-0,-12.243l10.429,0Zm-10.429,-6.802c1.008,0.403 2.544,0.807 4.61,1.21c2.066,0.403 4.358,0.755 6.877,1.058c2.519,0.302 4.837,0.453 6.953,0.453l-18.44,1.663l-0,-4.384Z" style="fill-rule:nonzero;"/><path d="M792.147,336.431l44.74,107.013l-12.848,0l-34.915,-92.654l3.023,-14.359Zm-32.497,96.886c-0.705,2.015 -0.806,3.728 -0.302,5.139c0.504,1.411 1.335,2.494 2.494,3.25c1.159,0.756 2.343,1.133 3.552,1.133l1.36,0l0,1.512l-30.38,-0l-0,-1.512l1.36,0c2.317,0 4.711,-0.73 7.179,-2.191c2.469,-1.461 4.51,-3.905 6.122,-7.331l8.615,0Zm32.497,-96.886l1.361,10.581l-37.939,96.885l-9.069,0l38.694,-91.898c0,0 0.277,-0.629 0.832,-1.889c0.554,-1.26 1.209,-2.796 1.965,-4.61c0.755,-1.814 1.41,-3.577 1.965,-5.29c0.554,-1.713 0.831,-2.973 0.831,-3.779l1.36,0Zm21.312,66.656l0,4.535l-47.309,-0l-0,-4.535l47.309,0Zm6.802,30.23l12.394,0c1.511,3.426 3.527,5.87 6.046,7.331c2.519,1.461 4.937,2.191 7.255,2.191l1.209,0l0,1.512l-34.008,-0l-0,-1.512l1.36,0c1.915,0 3.628,-0.831 5.139,-2.494c1.512,-1.662 1.713,-4.005 0.605,-7.028Z" style="fill-rule:nonzero;"/><path d="M955.286,338.547l0,105.804l-9.824,-0l-0,-105.804l9.824,0Zm40.81,101.118l0,4.686l-41.263,-0l-0,-4.686l41.263,0Zm9.22,-19.8l-8.766,24.486l-25.091,-0l5.441,-4.686c5.341,0 9.699,-0.831 13.075,-2.494c3.375,-1.662 6.121,-4.005 8.237,-7.028c2.116,-3.023 3.981,-6.449 5.593,-10.278l1.511,-0Zm-59.401,13.452l0,11.034l-12.092,-0l0,-1.512l1.965,0c2.62,0 4.862,-0.932 6.726,-2.796c1.864,-1.864 2.847,-4.106 2.948,-6.726l0.453,0Zm0,-83.736l-0.453,0c-0.101,-2.62 -1.084,-4.862 -2.948,-6.726c-1.864,-1.864 -4.106,-2.796 -6.726,-2.796l-1.965,-0l0,-1.512l12.092,0l0,11.034Zm8.918,0l-0,-11.034l12.092,0l-0,1.512l-1.965,-0c-2.62,-0 -4.862,0.932 -6.726,2.796c-1.865,1.864 -2.847,4.106 -2.948,6.726l-0.453,0Z" style="fill-rule:nonzero;"/></g><g><path d="M34.062,59.296l29.375,-0c6.25,-0 11.91,0.902 16.98,2.708c5.069,1.805 9.34,4.41 12.812,7.812c3.472,3.403 6.146,7.5 8.021,12.292c1.875,4.792 2.812,10.243 2.812,16.354c0,6.667 -1.562,13.056 -4.687,19.167c-3.125,6.111 -7.361,11.076 -12.708,14.896c-5.348,3.819 -11.355,5.729 -18.021,5.729c2.361,0.972 4.93,2.951 7.708,5.937c2.778,2.987 5.208,5.868 7.292,8.646c-0,0 0.937,1.354 2.812,4.063c1.875,2.708 4.236,6.007 7.084,9.896c2.847,3.888 5.729,7.708 8.645,11.458c2.917,3.75 5.417,6.736 7.501,8.958c2.777,3.056 5.555,5.764 8.333,8.125c2.778,2.361 5.798,4.236 9.062,5.625c3.264,1.389 6.91,2.084 10.938,2.084l-0,2.083l-11.459,-0c-6.388,-0 -11.909,-0.972 -16.562,-2.917c-4.653,-1.944 -8.576,-4.34 -11.771,-7.187c-3.194,-2.847 -5.903,-5.591 -8.125,-8.229c-0.417,-0.556 -1.562,-2.153 -3.437,-4.792c-1.875,-2.639 -4.098,-5.799 -6.667,-9.479c-2.569,-3.681 -5.104,-7.327 -7.604,-10.938c-2.5,-3.611 -4.653,-6.701 -6.459,-9.271c-1.805,-2.569 -2.847,-4.062 -3.125,-4.479c-2.638,-3.472 -5.555,-6.666 -8.75,-9.583c-3.194,-2.917 -6.666,-4.375 -10.416,-4.375l-0,-2.083c-0,-0 1.076,0.034 3.229,0.104c2.153,0.069 4.757,0.034 7.812,-0.104c3.612,-0.139 7.57,-0.695 11.875,-1.667c4.306,-0.972 8.334,-2.986 12.084,-6.042c3.75,-3.055 6.597,-7.708 8.541,-13.958c0.417,-1.528 0.764,-3.438 1.042,-5.729c0.278,-2.292 0.347,-4.549 0.208,-6.771c-0.138,-9.445 -2.534,-16.979 -7.187,-22.604c-4.653,-5.625 -10.868,-8.646 -18.646,-9.063c-3.889,-0.278 -7.882,-0.382 -11.979,-0.312c-4.097,0.069 -7.535,0.104 -10.313,0.104l-4.166,-0c-0,-0.139 -0.174,-0.729 -0.521,-1.771c-0.347,-1.042 -1.563,-4.687 -1.563,-4.687Zm2.709,-0l-0,145.833l-13.542,-0l0,-145.833l13.542,-0Zm-12.917,130.625l0,15.208l-16.667,-0l0,-2.083l2.709,-0c3.611,-0 6.701,-1.285 9.271,-3.855c2.569,-2.569 3.923,-5.659 4.062,-9.27l0.625,-0Zm0,-115.417l-0.625,-0c-0.139,-3.611 -1.493,-6.701 -4.062,-9.271c-2.57,-2.569 -5.66,-3.854 -9.271,-3.854l-2.709,-0l0,-2.083l16.667,-0l0,15.208Zm12.292,115.417l0.625,-0c-0,3.611 1.319,6.701 3.958,9.27c2.639,2.57 5.764,3.855 9.375,3.855l2.5,-0l0,2.083l-16.458,-0l-0,-15.208Z" style="fill-rule:nonzero;"/><path d="M197.396,77.212l57.291,126.667l-16.458,-0l-44.375,-108.125l3.542,-18.542Zm-40.209,112.709c-1.527,4.166 -1.319,7.395 0.625,9.687c1.945,2.292 4.167,3.438 6.667,3.438l1.667,-0l-0,2.083l-39.792,-0l0,-2.083l1.667,-0c2.916,-0 5.903,-1.007 8.958,-3.021c3.056,-2.014 5.695,-5.382 7.917,-10.104l12.291,-0Zm40.209,-112.709l1.458,14.375l-47.708,112.917l-13.125,-0l49.375,-105.833c-0,-0 0.382,-0.834 1.146,-2.5c0.764,-1.667 1.666,-3.716 2.708,-6.146c1.042,-2.431 1.979,-4.827 2.812,-7.188c0.834,-2.361 1.32,-4.236 1.459,-5.625l1.875,0Zm24.583,79.375l0,6.25l-55.208,0l-0,-6.25l55.208,0Zm10.625,33.334l15.833,-0c2.084,4.722 4.653,8.09 7.709,10.104c3.055,2.014 5.972,3.021 8.75,3.021l1.666,-0l0,2.083l-42.708,-0l0,-2.083l1.667,-0c2.361,-0 4.514,-1.146 6.458,-3.438c1.945,-2.292 2.153,-5.521 0.625,-9.687Z" style="fill-rule:nonzero;"/><path d="M288.021,77.004l115.416,108.75l2.084,22.292l-115.417,-109.375l-2.083,-21.667Zm0.416,115.208l0,12.917l-15.625,-0l0,-2.083l3.542,-0c3.195,-0 5.903,-1.042 8.125,-3.125c2.222,-2.084 3.333,-4.653 3.333,-7.709l0.625,0Zm8.75,0c0,3.056 1.146,5.625 3.438,7.709c2.292,2.083 4.965,3.125 8.021,3.125l3.541,-0l0,2.083l-15.625,-0l0,-12.917l0.625,0Zm-9.166,-115.208l8.958,11.667l0.208,116.458l-9.375,-0l0,-102.083c0,-7.084 -0.312,-13.195 -0.937,-18.334c-0.625,-5.139 -0.938,-7.708 -0.938,-7.708l2.084,-0Zm117.5,3.125l-0,101.25c-0,4.444 0.139,8.715 0.416,12.812c0.278,4.098 0.591,7.431 0.938,10c0.347,2.57 0.521,3.855 0.521,3.855l-1.875,-0l-9.167,-11.042l0,-116.875l9.167,-0Zm-0.625,12.917l-0,-12.917l15.625,-0l-0,2.083l-3.542,0c-3.055,0 -5.729,1.042 -8.021,3.125c-2.291,2.084 -3.437,4.653 -3.437,7.709l-0.625,-0Zm-8.542,-0c-0.139,-3.056 -1.319,-5.625 -3.542,-7.709c-2.222,-2.083 -4.93,-3.125 -8.125,-3.125l-3.541,0l-0,-2.083l15.625,-0l-0,12.917l-0.417,-0Z" style="fill-rule:nonzero;"/><path d="M505.521,77.212c6.389,0 12.396,0.452 18.021,1.354c5.625,0.903 10.972,2.292 16.041,4.167c5.07,1.875 9.896,4.271 14.479,7.188l4.584,29.375l-1.875,-0c-1.945,-8.195 -5.104,-14.931 -9.479,-20.209c-4.375,-5.278 -10.035,-9.201 -16.98,-11.771c-6.944,-2.569 -15.277,-3.854 -25,-3.854c-10.555,0 -19.826,2.396 -27.812,7.188c-7.986,4.791 -14.201,11.597 -18.646,20.416c-4.444,8.82 -6.667,19.341 -6.667,31.563c0,12.083 2.223,22.569 6.667,31.458c4.445,8.889 10.695,15.729 18.75,20.521c8.056,4.792 17.361,7.188 27.917,7.188c5.833,-0 11.389,-0.625 16.666,-1.875c5.278,-1.25 10.382,-3.23 15.313,-5.938c4.931,-2.708 9.549,-6.146 13.854,-10.312l0.208,-27.709c0.139,-2.639 -0.659,-4.653 -2.395,-6.041c-1.736,-1.389 -4.132,-2.084 -7.188,-2.084l-2.917,0l0,-2.083l38.125,-0l0,2.083l-2.916,0c-6.25,0 -9.375,2.778 -9.375,8.334l-0,25c-3.195,4.027 -7.57,8.125 -13.125,12.291c-5.556,4.167 -12.188,7.639 -19.896,10.417c-7.708,2.778 -16.493,4.167 -26.354,4.167c-13.75,-0.139 -25.729,-2.848 -35.938,-8.125c-10.208,-5.278 -18.159,-12.778 -23.854,-22.5c-5.694,-9.723 -8.542,-21.32 -8.542,-34.792c0,-13.611 2.848,-25.278 8.542,-35c5.695,-9.722 13.681,-17.222 23.958,-22.5c10.278,-5.278 22.223,-7.917 35.834,-7.917Z" style="fill-rule:nonzero;"/><path d="M618.021,80.129l-0,125l-13.334,-0l0,-125l13.334,-0Zm56.041,118.542l-0.416,6.458l-56.042,-0l0,-6.458l56.458,-0Zm-9.791,-59.167l-0,6.25l-46.667,-0l0,-6.25l46.667,-0Zm9.583,-59.375l0,6.458l-56.25,0l0,-6.458l56.25,-0Zm11.875,95.208l-11.458,29.792l-31.667,-0l7.083,-6.458c6.945,-0 12.535,-1.007 16.771,-3.021c4.236,-2.014 7.674,-4.792 10.313,-8.334c2.639,-3.541 4.93,-7.534 6.875,-11.979l2.083,0Zm-21.458,-30l-0,11.875l-2.292,0l0,-2.708c0,-2.361 -0.694,-4.41 -2.083,-6.146c-1.389,-1.736 -3.542,-2.604 -6.459,-2.604l0,-0.417l10.834,0Zm-0,-17.291l-0,11.875l-10.834,-0l0,-0.417c2.917,-0 5.07,-0.868 6.459,-2.604c1.389,-1.736 2.083,-3.785 2.083,-6.146l0,-2.708l2.292,-0Zm9.583,-42.084l0,14.375l-2.292,0l0,-3.125c0,-2.916 -0.937,-5.416 -2.812,-7.5c-1.875,-2.083 -4.41,-3.125 -7.604,-3.125l-0,-0.625l12.708,0Zm0,-9.166l0,5.416l-23.75,-2.083c4.306,-0 8.889,-0.382 13.75,-1.146c4.861,-0.764 8.195,-1.493 10,-2.187Zm-68.75,115l2.708,13.333l-18.125,-0l0,-2.083l2.917,-0c3.472,-0 6.32,-1.112 8.542,-3.334c2.222,-2.222 3.403,-4.861 3.541,-7.916l0.417,-0Zm0,-98.542l-0.417,-0c-0.138,-3.195 -1.319,-5.833 -3.541,-7.917c-2.222,-2.083 -5.07,-3.125 -8.542,-3.125l-2.917,0l0,-2.083l18.125,-0l-2.708,13.125Z" style="fill-rule:nonzero;"/><path d="M729.687,80.129l0,125l-13.333,-0l0,-125l13.333,-0Zm56.042,118.542l-0.417,6.458l-56.041,-0l-0,-6.458l56.458,-0Zm11.667,-23.334l-11.459,29.792l-31.666,-0l7.083,-6.458c6.945,-0 12.535,-1.007 16.771,-3.021c4.236,-2.014 7.674,-4.792 10.312,-8.334c2.639,-3.541 4.931,-7.534 6.875,-11.979l2.084,0Zm-80.625,16.459l2.708,13.333l-18.125,-0l0,-2.083l2.917,-0c3.472,-0 6.319,-1.112 8.541,-3.334c2.223,-2.222 3.403,-4.861 3.542,-7.916l0.417,-0Zm12.291,-98.334l0,-13.333l15.417,-0l0,2.083l-2.5,0c-3.333,0 -6.215,1.077 -8.646,3.229c-2.43,2.153 -3.646,4.827 -3.646,8.021l-0.625,0Zm-12.291,0l-0.417,0c-0.139,-3.194 -1.389,-5.868 -3.75,-8.021c-2.361,-2.152 -5.278,-3.229 -8.75,-3.229l-2.5,0l0,-2.083l15.417,-0l-0,13.333Z" style="fill-rule:nonzero;"/><path d="M1001.56,144.296l-2.5,32.708c-3.611,5.972 -8.159,11.285 -13.645,15.937c-5.486,4.653 -11.945,8.334 -19.375,11.042c-7.431,2.708 -15.938,4.063 -25.521,4.063c-14.445,-0.139 -27.292,-3.334 -38.542,-9.584c-11.25,-6.25 -20.035,-15.034 -26.354,-26.354c-6.319,-11.319 -9.479,-24.687 -9.479,-40.104c-0,-15.139 3.125,-28.368 9.375,-39.688c6.25,-11.319 15.035,-20.138 26.354,-26.458c11.319,-6.319 24.618,-9.479 39.896,-9.479c10.278,-0 19.548,1.354 27.812,4.062c8.264,2.709 15.452,6.077 21.563,10.105l4.166,29.375l-1.875,-0c-3.055,-12.223 -9.305,-21.493 -18.75,-27.813c-9.444,-6.319 -20.416,-9.479 -32.916,-9.479c-12.222,-0 -22.813,2.882 -31.771,8.646c-8.958,5.764 -15.903,13.819 -20.833,24.166c-4.931,10.348 -7.396,22.466 -7.396,36.355c-0,13.888 2.465,26.041 7.396,36.458c4.93,10.417 11.805,18.542 20.625,24.375c8.819,5.833 19.062,8.889 30.729,9.167c9.861,-0 18.993,-1.841 27.396,-5.521c8.402,-3.681 15.451,-9.722 21.145,-18.125c5.695,-8.403 9.306,-19.688 10.834,-33.854l1.666,-0Z" style="fill-rule:nonzero;"/><path d="M1141.56,80.129l0,125l-13.333,-0l0,-125l13.333,-0Zm-90.208,-0l0,125l-13.333,-0l-0,-125l13.333,-0Zm78.958,60.208l0,6.25l-81.25,0l0,-6.25l81.25,0Zm-91.666,51.459l-0,13.333l-15.209,-0l0,-2.083l2.5,-0c3.334,-0 6.146,-1.112 8.438,-3.334c2.292,-2.222 3.507,-4.861 3.646,-7.916l0.625,-0Zm12.083,-0l0.625,-0c0,3.055 1.181,5.694 3.542,7.916c2.361,2.222 5.208,3.334 8.541,3.334l2.5,-0l0,2.083l-15.208,-0l0,-13.333Zm0,-98.334l0,-13.333l15.208,-0l0,2.083l-2.5,0c-3.333,0 -6.18,1.077 -8.541,3.229c-2.361,2.153 -3.542,4.827 -3.542,8.021l-0.625,0Zm-12.083,0l-0.625,0c-0.139,-3.194 -1.354,-5.868 -3.646,-8.021c-2.292,-2.152 -5.104,-3.229 -8.438,-3.229l-2.5,0l0,-2.083l15.209,-0l-0,13.333Zm90.208,98.334l0,13.333l-15.208,-0l-0,-2.083l2.5,-0c3.333,-0 6.146,-1.112 8.437,-3.334c2.292,-2.222 3.507,-4.861 3.646,-7.916l0.625,-0Zm12.083,-0l0.625,-0c0.139,3.055 1.355,5.694 3.646,7.916c2.292,2.222 5.104,3.334 8.438,3.334l2.5,-0l-0,2.083l-15.209,-0l0,-13.333Zm0,-98.334l0,-13.333l15.209,-0l-0,2.083l-2.5,0c-3.334,0 -6.146,1.077 -8.438,3.229c-2.291,2.153 -3.507,4.827 -3.646,8.021l-0.625,0Zm-12.083,0l-0.625,0c-0.139,-3.194 -1.354,-5.868 -3.646,-8.021c-2.291,-2.152 -5.104,-3.229 -8.437,-3.229l-2.5,0l-0,-2.083l15.208,-0l0,13.333Z" style="fill-rule:nonzero;"/><path d="M1237.4,77.212l57.291,126.667l-16.458,-0l-44.375,-108.125l3.542,-18.542Zm-40.209,112.709c-1.527,4.166 -1.319,7.395 0.625,9.687c1.945,2.292 4.167,3.438 6.667,3.438l1.667,-0l-0,2.083l-39.792,-0l0,-2.083l1.667,-0c2.916,-0 5.903,-1.007 8.958,-3.021c3.056,-2.014 5.695,-5.382 7.917,-10.104l12.291,-0Zm40.209,-112.709l1.458,14.375l-47.708,112.917l-13.125,-0l49.375,-105.833c-0,-0 0.382,-0.834 1.146,-2.5c0.764,-1.667 1.666,-3.716 2.708,-6.146c1.042,-2.431 1.979,-4.827 2.812,-7.188c0.834,-2.361 1.32,-4.236 1.459,-5.625l1.875,0Zm24.583,79.375l0,6.25l-55.208,0l-0,-6.25l55.208,0Zm10.625,33.334l15.833,-0c2.084,4.722 4.653,8.09 7.709,10.104c3.055,2.014 5.972,3.021 8.75,3.021l1.666,-0l0,2.083l-42.708,-0l0,-2.083l1.667,-0c2.361,-0 4.514,-1.146 6.458,-3.438c1.945,-2.292 2.153,-5.521 0.625,-9.687Z" style="fill-rule:nonzero;"/><path d="M1383.02,77.212c9.722,0 18.854,1.563 27.396,4.688c8.541,3.125 16.041,7.604 22.5,13.437c6.458,5.834 11.493,12.743 15.104,20.729c3.611,7.987 5.416,16.841 5.416,26.563c0,9.722 -1.805,18.576 -5.416,26.562c-3.611,7.987 -8.646,14.896 -15.104,20.73c-6.459,5.833 -13.959,10.312 -22.5,13.437c-8.542,3.125 -17.674,4.688 -27.396,4.688c-9.722,-0 -18.82,-1.563 -27.292,-4.688c-8.472,-3.125 -15.937,-7.604 -22.396,-13.437c-6.458,-5.834 -11.493,-12.743 -15.104,-20.73c-3.611,-7.986 -5.417,-16.84 -5.417,-26.562c0,-9.722 1.806,-18.576 5.417,-26.563c3.611,-7.986 8.646,-14.895 15.104,-20.729c6.459,-5.833 13.924,-10.312 22.396,-13.437c8.472,-3.125 17.57,-4.688 27.292,-4.688Zm-0,124.584c10.278,-0 19.583,-2.5 27.916,-7.5c8.334,-5 14.931,-11.945 19.792,-20.834c4.861,-8.889 7.292,-19.166 7.292,-30.833c-0,-11.806 -2.431,-22.118 -7.292,-30.938c-4.861,-8.819 -11.458,-15.729 -19.792,-20.729c-8.333,-5 -17.638,-7.5 -27.916,-7.5c-10.139,0 -19.375,2.5 -27.709,7.5c-8.333,5 -14.93,11.91 -19.791,20.729c-4.861,8.82 -7.292,19.132 -7.292,30.938c0,11.667 2.431,21.944 7.292,30.833c4.861,8.889 11.458,15.834 19.791,20.834c8.334,5 17.57,7.5 27.709,7.5Z" style="fill-rule:nonzero;"/></g></svg>