<?xml version="1.0" encoding="UTF-8" standalone="no"?><!DOCTYPE svg PUBLIC "-//W3C//DTD SVG 1.1//EN" "http://www.w3.org/Graphics/SVG/1.1/DTD/svg11.dtd"><svg width="100%" height="100%" viewBox="0 0 3475 1217" version="1.1" xmlns="http://www.w3.org/2000/svg" xmlns:xlink="http://www.w3.org/1999/xlink" xml:space="preserve" xmlns:serif="http://www.serif.com/" style="fill-rule:evenodd;clip-rule:evenodd;stroke-linecap:round;stroke-linejoin:round;stroke-miterlimit:1.5;"><g><g><path d="M231.371,186.292l58.75,-0c12.5,-0 23.819,1.805 33.958,5.416c10.139,3.611 18.681,8.82 25.625,15.625c6.945,6.806 12.292,15 16.042,24.584c3.75,9.583 5.625,20.486 5.625,32.708c-0,13.333 -3.125,26.111 -9.375,38.333c-6.25,12.223 -14.722,22.153 -25.417,29.792c-10.694,7.639 -22.708,11.458 -36.041,11.458c4.722,1.945 9.861,5.903 15.416,11.875c5.556,5.973 10.417,11.736 14.584,17.292c-0,0 1.875,2.708 5.625,8.125c3.75,5.417 8.472,12.014 14.166,19.792c5.695,7.777 11.459,15.416 17.292,22.916c5.833,7.5 10.833,13.473 15,17.917c5.555,6.111 11.111,11.528 16.667,16.25c5.555,4.722 11.597,8.472 18.125,11.25c6.527,2.778 13.819,4.167 21.875,4.167l-0,4.166l-22.917,0c-12.778,0 -23.82,-1.944 -33.125,-5.833c-9.306,-3.889 -17.153,-8.681 -23.542,-14.375c-6.389,-5.694 -11.805,-11.181 -16.25,-16.458c-0.833,-1.111 -3.125,-4.306 -6.875,-9.584c-3.75,-5.277 -8.194,-11.597 -13.333,-18.958c-5.139,-7.361 -10.208,-14.653 -15.208,-21.875c-5,-7.222 -9.306,-13.403 -12.917,-18.542c-3.611,-5.139 -5.695,-8.125 -6.25,-8.958c-5.278,-6.944 -11.111,-13.333 -17.5,-19.167c-6.389,-5.833 -13.333,-8.75 -20.833,-8.75l-0,-4.166c-0,-0 2.152,0.069 6.458,0.208c4.305,0.139 9.514,0.069 15.625,-0.208c7.222,-0.278 15.139,-1.389 23.75,-3.334c8.611,-1.944 16.667,-5.972 24.167,-12.083c7.5,-6.111 13.194,-15.417 17.083,-27.917c0.833,-3.055 1.528,-6.875 2.083,-11.458c0.556,-4.583 0.695,-9.097 0.417,-13.542c-0.278,-18.889 -5.07,-33.958 -14.375,-45.208c-9.306,-11.25 -21.736,-17.292 -37.292,-18.125c-7.778,-0.556 -15.764,-0.764 -23.958,-0.625c-8.195,0.139 -15.07,0.208 -20.625,0.208l-8.333,0c-0,-0.277 -0.348,-1.458 -1.042,-3.541c-0.695,-2.084 -3.125,-9.375 -3.125,-9.375Zm5.417,-0l-0,291.666l-27.084,0l0,-291.666l27.084,-0Zm-25.834,261.25l0,30.416l-33.333,0l-0,-4.166l5.417,-0c7.222,-0 13.402,-2.57 18.541,-7.709c5.139,-5.139 7.847,-11.319 8.125,-18.541l1.25,-0Zm0,-230.834l-1.25,0c-0.278,-7.222 -2.986,-13.402 -8.125,-18.541c-5.139,-5.139 -11.319,-7.709 -18.541,-7.709l-5.417,0l-0,-4.166l33.333,-0l0,30.416Zm24.584,230.834l1.25,-0c-0,7.222 2.638,13.402 7.916,18.541c5.278,5.139 11.528,7.709 18.75,7.709l5,-0l0,4.166l-32.916,0l-0,-30.416Z" style="fill-rule:nonzero;"/><g><path d="M578.871,222.125l114.583,253.333l-32.916,0l-88.75,-216.25l7.083,-37.083Zm-80.417,225.417c-3.055,8.333 -2.639,14.791 1.25,19.375c3.889,4.583 8.334,6.875 13.334,6.875l3.333,-0l-0,4.166l-79.583,0l-0,-4.166l3.333,-0c5.833,-0 11.805,-2.014 17.917,-6.042c6.111,-4.028 11.388,-10.764 15.833,-20.208l24.583,-0Zm80.417,-225.417l2.917,28.75l-95.417,225.833l-26.25,0l98.75,-211.666c-0,-0 0.764,-1.667 2.292,-5c1.527,-3.334 3.333,-7.431 5.416,-12.292c2.084,-4.861 3.959,-9.653 5.625,-14.375c1.667,-4.722 2.639,-8.472 2.917,-11.25l3.75,0Zm49.167,158.75l-0,12.5l-110.417,0l-0,-12.5l110.417,0Zm21.25,66.667l31.666,-0c4.167,9.444 9.306,16.18 15.417,20.208c6.111,4.028 11.944,6.042 17.5,6.042l3.333,-0l0,4.166l-85.417,0l0,-4.166l3.334,-0c4.722,-0 9.028,-2.292 12.917,-6.875c3.888,-4.584 4.305,-11.042 1.25,-19.375Z" style="fill-rule:nonzero;"/><path d="M780.954,221.708l230.834,217.5l4.166,44.584l-230.833,-218.75l-4.167,-43.334Zm0.834,230.417l-0,25.833l-31.25,0l-0,-4.166l7.083,-0c6.389,-0 11.805,-2.084 16.25,-6.25c4.444,-4.167 6.667,-9.306 6.667,-15.417l1.25,-0Zm17.5,-0c-0,6.111 2.291,11.25 6.875,15.417c4.583,4.166 9.93,6.25 16.041,6.25l7.084,-0l-0,4.166l-31.25,0l-0,-25.833l1.25,0Zm-18.334,-230.417l17.917,23.334l0.417,232.916l-18.75,0l-0,-204.166c-0,-14.167 -0.625,-26.389 -1.875,-36.667c-1.25,-10.278 -1.875,-15.417 -1.875,-15.417l4.166,0Zm235,6.25l0,202.5c0,8.889 0.278,17.431 0.833,25.625c0.556,8.195 1.181,14.861 1.875,20c0.695,5.139 1.042,7.709 1.042,7.709l-3.75,-0l-18.333,-22.084l-0,-233.75l18.333,0Zm-1.25,25.834l0,-25.834l31.25,0l0,4.167l-7.083,0c-6.111,0 -11.458,2.083 -16.042,6.25c-4.583,4.167 -6.875,9.306 -6.875,15.417l-1.25,-0Zm-17.083,-0c-0.278,-6.111 -2.639,-11.25 -7.083,-15.417c-4.445,-4.167 -9.862,-6.25 -16.25,-6.25l-7.084,0l0,-4.167l31.25,0l0,25.834l-0.833,-0Z" style="fill-rule:nonzero;"/><path d="M1236.79,222.125c12.777,-0 24.791,0.903 36.041,2.708c11.25,1.806 21.945,4.584 32.084,8.334c10.138,3.75 19.791,8.541 28.958,14.375l9.167,58.75l-3.75,-0c-3.889,-16.389 -10.209,-29.861 -18.959,-40.417c-8.75,-10.556 -20.069,-18.403 -33.958,-23.542c-13.889,-5.139 -30.556,-7.708 -50,-7.708c-21.111,-0 -39.653,4.792 -55.625,14.375c-15.972,9.583 -28.403,23.194 -37.292,40.833c-8.889,17.639 -13.333,38.681 -13.333,63.125c-0,24.167 4.444,45.139 13.333,62.917c8.889,17.778 21.389,31.458 37.5,41.042c16.111,9.583 34.722,14.375 55.834,14.375c11.666,-0 22.777,-1.25 33.333,-3.75c10.555,-2.5 20.764,-6.459 30.625,-11.875c9.861,-5.417 19.097,-12.292 27.708,-20.625l0.417,-55.417c0.278,-5.278 -1.32,-9.306 -4.792,-12.083c-3.472,-2.778 -8.264,-4.167 -14.375,-4.167l-5.833,-0l-0,-4.167l76.25,0l-0,4.167l-5.833,-0c-12.5,-0 -18.75,5.556 -18.75,16.667l-0,50c-6.389,8.055 -15.139,16.25 -26.25,24.583c-11.112,8.333 -24.375,15.278 -39.792,20.833c-15.417,5.556 -32.986,8.334 -52.708,8.334c-27.5,-0.278 -51.459,-5.695 -71.875,-16.25c-20.417,-10.556 -36.32,-25.556 -47.709,-45c-11.389,-19.445 -17.083,-42.639 -17.083,-69.584c-0,-27.222 5.694,-50.555 17.083,-70c11.389,-19.444 27.361,-34.444 47.917,-45c20.555,-10.555 44.444,-15.833 71.667,-15.833Z" style="fill-rule:nonzero;"/><path d="M1482.62,227.958l-0,250l-26.667,0l0,-250l26.667,0Zm112.083,237.084l-0.833,12.916l-112.083,0l-0,-12.916l112.916,-0Zm-19.583,-118.334l-0,12.5l-93.333,0l-0,-12.5l93.333,0Zm19.167,-118.75l-0,12.917l-112.5,-0l-0,-12.917l112.5,0Zm23.75,190.417l-22.917,59.583l-63.333,0l14.166,-12.916c13.889,-0 25.07,-2.014 33.542,-6.042c8.472,-4.028 15.347,-9.583 20.625,-16.667c5.278,-7.083 9.861,-15.069 13.75,-23.958l4.167,0Zm-42.917,-60l-0,23.75l-4.583,0l-0,-5.417c-0,-4.722 -1.389,-8.819 -4.167,-12.291c-2.778,-3.473 -7.083,-5.209 -12.917,-5.209l0,-0.833l21.667,0Zm-0,-34.583l-0,23.75l-21.667,-0l0,-0.834c5.834,0 10.139,-1.736 12.917,-5.208c2.778,-3.472 4.167,-7.569 4.167,-12.292l-0,-5.416l4.583,-0Zm19.167,-84.167l-0,28.75l-4.584,0l0,-6.25c0,-5.833 -1.875,-10.833 -5.625,-15c-3.75,-4.167 -8.819,-6.25 -15.208,-6.25l-0,-1.25l25.417,0Zm-0,-18.333l-0,10.833l-47.5,-4.167c8.611,0 17.777,-0.764 27.5,-2.291c9.722,-1.528 16.388,-2.986 20,-4.375Zm-137.5,230l5.416,26.666l-36.25,0l0,-4.166l5.834,-0c6.944,-0 12.638,-2.223 17.083,-6.667c4.444,-4.444 6.805,-9.722 7.083,-15.833l0.834,-0Zm-0,-197.084l-0.834,0c-0.278,-6.389 -2.639,-11.666 -7.083,-15.833c-4.445,-4.167 -10.139,-6.25 -17.083,-6.25l-5.834,0l0,-4.167l36.25,0l-5.416,26.25Z" style="fill-rule:nonzero;"/><path d="M1726.79,227.958l-0,250l-26.667,0l-0,-250l26.667,0Zm112.083,237.084l-0.833,12.916l-112.084,0l0,-12.916l112.917,-0Zm23.333,-46.667l-22.916,59.583l-63.334,0l14.167,-12.916c13.889,-0 25.069,-2.014 33.542,-6.042c8.472,-4.028 15.347,-9.583 20.625,-16.667c5.277,-7.083 9.861,-15.069 13.75,-23.958l4.166,0Zm-161.25,32.917l5.417,26.666l-36.25,0l-0,-4.166l5.833,-0c6.945,-0 12.639,-2.223 17.084,-6.667c4.444,-4.444 6.805,-9.722 7.083,-15.833l0.833,-0Zm24.584,-196.667l-0,-26.667l30.833,0l-0,4.167l-5,0c-6.667,0 -12.431,2.153 -17.292,6.458c-4.861,4.306 -7.291,9.653 -7.291,16.042l-1.25,0Zm-24.584,0l-0.833,0c-0.278,-6.389 -2.778,-11.736 -7.5,-16.042c-4.722,-4.305 -10.556,-6.458 -17.5,-6.458l-5,0l-0,-4.167l30.833,0l0,26.667Z" style="fill-rule:nonzero;"/><path d="M2312.2,356.292l-5,65.416c-7.222,11.945 -16.319,22.57 -27.291,31.875c-10.973,9.306 -23.889,16.667 -38.751,22.084c-14.861,5.416 -31.874,8.125 -51.041,8.125c-28.889,-0.278 -54.583,-6.667 -77.083,-19.167c-22.5,-12.5 -40.07,-30.069 -52.709,-52.708c-12.639,-22.639 -18.958,-49.375 -18.958,-80.209c-0,-30.277 6.25,-56.736 18.75,-79.375c12.5,-22.639 30.069,-40.277 52.708,-52.916c22.639,-12.639 49.236,-18.959 79.792,-18.959c20.555,0 39.097,2.709 55.625,8.125c16.528,5.417 30.903,12.153 43.125,20.209l8.333,58.75l-3.75,-0c-6.111,-24.445 -18.611,-42.986 -37.5,-55.625c-18.889,-12.639 -40.833,-18.959 -65.833,-18.959c-24.445,0 -45.625,5.764 -63.542,17.292c-17.916,11.528 -31.805,27.639 -41.666,48.333c-9.862,20.695 -14.792,44.931 -14.792,72.709c-0,27.777 4.93,52.083 14.792,72.916c9.861,20.834 23.611,37.084 41.25,48.75c17.638,11.667 38.125,17.778 61.458,18.334c19.722,-0 37.986,-3.681 54.792,-11.042c16.805,-7.361 30.902,-19.444 42.291,-36.25c11.389,-16.806 18.611,-39.375 21.667,-67.708l3.333,-0Z" style="fill-rule:nonzero;"/><path d="M2613.04,227.958l-0,250l-26.667,0l-0,-250l26.667,0Zm-180.417,0l-0,250l-26.667,0l0,-250l26.667,0Zm157.916,120.417l0,12.5l-162.499,0l-0.001,-12.5l162.5,0Zm-183.333,102.917l0,26.666l-30.416,0l-0,-4.166l4.999,-0c6.667,-0 12.292,-2.223 16.876,-6.667c4.583,-4.444 7.013,-9.722 7.291,-15.833l1.25,-0Zm24.167,-0l1.25,-0c-0,6.111 2.361,11.389 7.083,15.833c4.722,4.444 10.417,6.667 17.084,6.667l4.999,-0l0.001,4.166l-30.417,0l-0,-26.666Zm-0,-196.667l-0,-26.667l30.416,0l0,4.167l-4.999,-0c-6.667,-0 -12.362,2.153 -17.084,6.458c-4.722,4.306 -7.083,9.653 -7.083,16.042l-1.25,-0Zm-24.167,-0l-1.25,-0c-0.278,-6.389 -2.708,-11.736 -7.292,-16.042c-4.583,-4.305 -10.208,-6.458 -16.875,-6.458l-5,-0l0,-4.167l30.417,0l0,26.667Zm180.417,196.667l-0,26.666l-30.417,0l0,-4.166l5,-0c6.667,-0 12.292,-2.223 16.875,-6.667c4.583,-4.444 7.014,-9.722 7.292,-15.833l1.25,-0Zm24.166,-0l1.25,-0c0.278,6.111 2.709,11.389 7.292,15.833c4.584,4.444 10.208,6.667 16.875,6.667l5,-0l0,4.166l-30.417,0l0,-26.666Zm0,-196.667l0,-26.667l30.417,0l0,4.167l-5,-0c-6.667,-0 -12.291,2.153 -16.875,6.458c-4.583,4.306 -7.014,9.653 -7.292,16.042l-1.25,-0Zm-24.166,-0l-1.25,-0c-0.278,-6.389 -2.709,-11.736 -7.292,-16.042c-4.583,-4.305 -10.208,-6.458 -16.875,-6.458l-5,-0l0,-4.167l30.417,0l-0,26.667Z" style="fill-rule:nonzero;"/><path d="M2825.54,222.125l114.583,253.333l-32.917,0l-88.75,-216.25l7.084,-37.083Zm-80.417,225.417c-3.056,8.333 -2.639,14.791 1.25,19.375c3.889,4.583 8.333,6.875 13.333,6.875l3.334,-0l-0,4.166l-79.584,0l0,-4.166l3.334,-0c5.833,-0 11.805,-2.014 17.916,-6.042c6.111,-4.028 11.389,-10.764 15.834,-20.208l24.583,-0Zm80.417,-225.417l2.916,28.75l-95.416,225.833l-26.25,0l98.75,-211.666c-0,-0 0.763,-1.667 2.291,-5c1.528,-3.334 3.334,-7.431 5.417,-12.292c2.083,-4.861 3.958,-9.653 5.625,-14.375c1.667,-4.722 2.639,-8.472 2.917,-11.25l3.75,0Zm49.166,158.75l0,12.5l-110.416,0l-0,-12.5l110.416,0Zm21.25,66.667l31.667,-0c4.167,9.444 9.305,16.18 15.417,20.208c6.111,4.028 11.944,6.042 17.5,6.042l3.333,-0l-0,4.166l-85.417,0l0,-4.166l3.334,-0c4.722,-0 9.027,-2.292 12.916,-6.875c3.889,-4.584 4.306,-11.042 1.25,-19.375Z" style="fill-rule:nonzero;"/><path d="M3137.62,222.125c19.444,-0 37.708,3.125 54.792,9.375c17.083,6.25 32.083,15.208 45,26.875c12.916,11.667 22.986,25.486 30.208,41.458c7.222,15.973 10.833,33.681 10.833,53.125c0,19.445 -3.611,37.153 -10.833,53.125c-7.222,15.973 -17.292,29.792 -30.208,41.459c-12.917,11.666 -27.917,20.625 -45,26.875c-17.084,6.25 -35.348,9.375 -54.792,9.375c-19.445,-0 -37.639,-3.125 -54.583,-9.375c-16.945,-6.25 -31.875,-15.209 -44.792,-26.875c-12.917,-11.667 -22.986,-25.486 -30.208,-41.459c-7.223,-15.972 -10.834,-33.68 -10.834,-53.125c0,-19.444 3.611,-37.152 10.834,-53.125c7.222,-15.972 17.291,-29.791 30.208,-41.458c12.917,-11.667 27.847,-20.625 44.792,-26.875c16.944,-6.25 35.138,-9.375 54.583,-9.375Zm-0,249.167c20.555,-0 39.167,-5 55.833,-15c16.667,-10 29.861,-23.889 39.584,-41.667c9.722,-17.778 14.583,-38.333 14.583,-61.667c-0,-23.611 -4.861,-44.236 -14.583,-61.875c-9.723,-17.639 -22.917,-31.458 -39.584,-41.458c-16.666,-10 -35.278,-15 -55.833,-15c-20.278,0 -38.75,5 -55.417,15c-16.666,10 -29.861,23.819 -39.583,41.458c-9.722,17.639 -14.583,38.264 -14.583,61.875c-0,23.334 4.861,43.889 14.583,61.667c9.722,17.778 22.917,31.667 39.583,41.667c16.667,10 35.139,15 55.417,15Z" style="fill-rule:nonzero;"/></g></g><path d="M162.363,625l3125,0" style="fill:none;stroke:#00b4ff;stroke-width:34.71px;"/><g><path d="M482.812,764.741c24.768,0 46.47,5.035 65.104,15.104c18.634,10.07 33.217,24.248 43.75,42.535c10.532,18.287 15.798,39.583 15.798,63.889c0,24.305 -5.266,45.543 -15.798,63.715c-10.533,18.171 -25.116,32.349 -43.75,42.534c-18.634,10.185 -40.336,15.278 -65.104,15.278l-74.305,-0l-0.348,-10.417l74.653,0c19.907,0 37.21,-4.629 51.909,-13.889c14.699,-9.259 26.158,-22.222 34.375,-38.888c8.218,-16.667 12.327,-36.111 12.327,-58.333c-0,-22.223 -4.109,-41.667 -12.327,-58.334c-8.217,-16.666 -19.733,-29.629 -34.548,-38.888c-14.815,-9.26 -32.06,-13.889 -51.736,-13.889l-78.125,-0l0,-10.417l78.125,0Zm-68.403,0l0,243.055l-22.569,-0l0,-243.055l22.569,0Zm-21.527,217.708l-0,25.347l-27.778,-0l0,-3.472l4.514,-0c6.018,-0 11.169,-2.142 15.451,-6.424c4.283,-4.282 6.54,-9.433 6.771,-15.451l1.042,-0Zm-0,-192.361l-1.042,0c0,-6.018 -2.199,-11.169 -6.597,-15.451c-4.398,-4.282 -9.607,-6.424 -15.625,-6.424l-4.167,0l-0.347,-3.472l27.778,0l-0,25.347Z" style="fill-rule:nonzero;"/><g><path d="M965.451,764.741l0,243.055l-22.569,-0l-0,-243.055l22.569,0Zm93.75,232.291l-0,10.764l-94.792,-0l0,-10.764l94.792,-0Zm-14.931,-114.236l0,10.417l-79.861,-0l0,-10.417l79.861,0Zm14.931,-118.055l-0,10.764l-94.792,0l0,-10.764l94.792,0Zm21.18,186.805l-20.139,56.25l-57.638,-0l12.5,-10.764c12.268,-0 22.28,-1.91 30.034,-5.729c7.755,-3.82 14.063,-9.202 18.924,-16.146c4.861,-6.944 9.143,-14.815 12.847,-23.611l3.472,0Zm-36.111,-59.027l0,22.916l-3.472,0l0,-5.208c0,-4.63 -1.62,-8.623 -4.861,-11.979c-3.241,-3.357 -7.176,-5.035 -11.806,-5.035l0,-0.694l20.139,-0Zm0,-31.945l0,22.917l-20.139,-0l0,-0.695c4.63,-0.231 8.565,-2.025 11.806,-5.382c3.241,-3.356 4.861,-7.349 4.861,-11.979l0,-4.861l3.472,0Zm14.931,-86.111l-0,27.778l-3.472,0l-0,-6.25c-0,-5.555 -1.968,-10.359 -5.903,-14.41c-3.935,-4.05 -8.796,-6.192 -14.584,-6.423l0,-0.695l23.959,0Zm-0,-15.972l-0,10.07l-42.361,-3.82c5.092,0 10.474,-0.347 16.146,-1.041c5.671,-0.695 10.937,-1.505 15.798,-2.431c4.861,-0.926 8.333,-1.852 10.417,-2.778Zm-115.278,223.958l0,25.347l-27.777,-0l-0,-3.472l4.514,-0c6.018,-0 11.169,-2.142 15.451,-6.424c4.282,-4.282 6.539,-9.433 6.771,-15.451l1.041,-0Zm0,-192.361l-1.041,0c-0,-6.018 -2.199,-11.169 -6.597,-15.451c-4.399,-4.282 -9.607,-6.424 -15.625,-6.424l-4.167,0l-0.347,-3.472l27.777,0l0,25.347Z" style="fill-rule:nonzero;"/><path d="M1413.72,759.533l201.736,215.277l3.125,37.847l-201.736,-214.93l-3.125,-38.194Zm0.695,223.61l-0,24.653l-28.819,-0l-0,-3.472l6.597,-0c5.787,-0 10.764,-2.084 14.93,-6.25c4.167,-4.167 6.25,-9.144 6.25,-14.931l1.042,0Zm14.93,0c0,5.787 2.084,10.764 6.25,14.931c4.167,4.166 9.144,6.25 14.931,6.25l6.597,-0l0,3.472l-28.819,-0l-0,-24.653l1.041,0Zm-15.625,-223.61l15.278,19.444l0.347,228.819l-15.972,-0l0,-204.86c0,-11.806 -0.521,-21.991 -1.562,-30.556c-1.042,-8.565 -1.563,-12.847 -1.563,-12.847l3.472,-0Zm204.861,5.208l-0,203.472c-0,7.407 0.231,14.525 0.694,21.354c0.463,6.828 0.984,12.384 1.563,16.666c0.578,4.283 0.868,6.424 0.868,6.424l-3.125,-0l-15.625,-18.403l-0,-229.513l15.625,0Zm27.777,0l0,3.472l-6.25,0c-5.787,0 -10.763,2.026 -14.93,6.077c-4.167,4.051 -6.366,9.085 -6.597,15.104l-1.042,-0l0,-24.653l28.819,0Zm-71.527,0l28.819,0l0,24.653l-0.694,-0c-0.232,-6.019 -2.373,-11.053 -6.424,-15.104c-4.051,-4.051 -9.085,-6.077 -15.104,-6.077l-6.597,0l-0,-3.472Z" style="fill-rule:nonzero;"/><path d="M2058.51,765.783l-0,242.013l-22.569,-0l-0,-242.013l22.569,-0Zm89.236,-1.389l-0,10.417l-201.041,-0l-0,-10.417l201.041,0Zm-0,9.375l-0,28.125l-3.473,-0.347l0,-5.903c0,-5.787 -2.025,-10.648 -6.076,-14.583c-4.051,-3.936 -8.854,-6.019 -14.41,-6.25l0,-1.042l23.959,-0Zm-0,-15.625l-0,10.069l-42.361,-3.819c5.092,0 10.474,-0.347 16.145,-1.042c5.672,-0.694 10.938,-1.504 15.799,-2.43c4.861,-0.926 8.333,-1.852 10.417,-2.778Zm-110.764,224.305l0,25.347l-27.778,-0l0,-3.472l4.514,-0c6.019,-0 11.169,-2.142 15.452,-6.424c4.282,-4.282 6.539,-9.433 6.771,-15.451l1.041,-0Zm20.486,-0l1.042,-0c0.231,6.018 2.488,11.169 6.771,15.451c4.282,4.282 9.432,6.424 15.451,6.424l4.514,-0l-0,3.472l-27.778,-0l0,-25.347Zm-86.805,-208.68l-0,1.042c-5.787,0.231 -10.648,2.314 -14.583,6.25c-3.935,3.935 -5.903,8.796 -5.903,14.583l-0,5.903l-3.472,0.347l-0,-28.125l23.958,-0Zm-23.958,-15.625c2.315,0.926 5.845,1.852 10.59,2.778c4.745,0.926 10.012,1.736 15.799,2.43c5.787,0.695 11.111,1.042 15.972,1.042l-42.361,3.819l-0,-10.069Z" style="fill-rule:nonzero;"/><path d="M2532.47,759.88l102.777,245.833l-29.514,-0l-80.208,-212.847l6.945,-32.986Zm-74.653,222.569c-1.62,4.629 -1.852,8.564 -0.694,11.805c1.157,3.241 3.067,5.729 5.729,7.465c2.662,1.737 5.382,2.605 8.16,2.605l3.125,-0l-0,3.472l-69.792,-0l0,-3.472l3.125,-0c5.324,-0 10.822,-1.679 16.493,-5.035c5.672,-3.357 10.359,-8.97 14.063,-16.84l19.791,-0Zm74.653,-222.569l3.125,24.306l-87.153,222.568l-20.833,0l88.889,-211.11c-0,-0 0.636,-1.447 1.909,-4.34c1.273,-2.894 2.778,-6.424 4.514,-10.591c1.736,-4.166 3.241,-8.217 4.514,-12.152c1.273,-3.935 1.91,-6.829 1.91,-8.681l3.125,0Zm48.958,153.125l-0,10.416l-108.68,0l-0,-10.416l108.68,-0Zm15.625,69.444l28.472,-0c3.472,7.87 8.102,13.483 13.889,16.84c5.787,3.356 11.342,5.035 16.666,5.035l2.778,-0l0,3.472l-78.125,-0l0,-3.472l3.125,-0c4.399,-0 8.334,-1.91 11.806,-5.73c3.472,-3.819 3.935,-9.201 1.389,-16.145Z" style="fill-rule:nonzero;"/><path d="M3002.95,764.741l0,243.055l-22.569,-0l-0,-243.055l22.569,0Zm93.75,232.291l-0,10.764l-94.792,-0l0,-10.764l94.792,-0Zm21.18,-45.486l-20.139,56.25l-57.638,-0l12.5,-10.764c12.268,-0 22.28,-1.91 30.034,-5.729c7.755,-3.82 14.063,-9.202 18.924,-16.146c4.861,-6.944 9.143,-14.815 12.847,-23.611l3.472,0Zm-136.458,30.903l0,25.347l-27.777,-0l-0,-3.472l4.514,-0c6.018,-0 11.169,-2.142 15.451,-6.424c4.282,-4.282 6.539,-9.433 6.771,-15.451l1.041,-0Zm0,-192.361l-1.041,0c-0.232,-6.018 -2.489,-11.169 -6.771,-15.451c-4.282,-4.282 -9.433,-6.424 -15.451,-6.424l-4.514,0l-0,-3.472l27.777,0l0,25.347Zm20.486,0l0,-25.347l27.778,0l0,3.472l-4.514,0c-6.018,0 -11.169,2.142 -15.451,6.424c-4.282,4.282 -6.539,9.433 -6.771,15.451l-1.042,0Z" style="fill-rule:nonzero;"/></g></g></g></svg>