<?xml version="1.0" encoding="UTF-8" standalone="no"?>
<!DOCTYPE svg PUBLIC "-//W3C//DTD SVG 1.1//EN" "http://www.w3.org/Graphics/SVG/1.1/DTD/svg11.dtd">
<svg width="100%" height="100%" viewBox="0 0 400 120" version="1.1" xmlns="http://www.w3.org/2000/svg" xmlns:xlink="http://www.w3.org/1999/xlink" xml:space="preserve" xmlns:serif="http://www.serif.com/" style="fill-rule:evenodd;clip-rule:evenodd;stroke-linecap:round;stroke-linejoin:round;stroke-miterlimit:1.5;">
    <g transform="matrix(0.337845,0,0,0.634683,-247.577,-209.427)">
        <path d="M747.297,435.535L1901.67,435.535" style="fill:none;stroke:rgb(0,180,255);stroke-width:3.93px;"/>
    </g>
    <g transform="matrix(0.379112,0,0,0.155306,-316.58,30.013)">
        <path d="M992.695,356C997.399,356 1001.52,358.334 1005.06,363.002C1008.6,367.67 1011.37,374.244 1013.37,382.721C1015.37,391.199 1016.37,401.072 1016.37,412.34C1016.37,423.608 1015.37,433.454 1013.37,441.879C1011.37,450.303 1008.6,456.876 1005.06,461.598C1001.52,466.32 997.399,468.681 992.695,468.681L978.583,468.681L978.517,463.851L992.695,463.851C996.475,463.851 999.762,461.705 1002.55,457.412C1005.35,453.12 1007.52,447.11 1009.08,439.384C1010.64,431.657 1011.42,422.642 1011.42,412.34C1011.42,402.038 1010.64,393.024 1009.08,385.297C1007.52,377.57 1005.33,371.561 1002.52,367.268C999.707,362.975 996.431,360.829 992.695,360.829L977.857,360.829L977.857,356L992.695,356ZM979.704,356L979.704,468.681L975.417,468.681L975.417,356L979.704,356ZM975.615,456.93L975.615,468.681L970.34,468.681L970.34,467.071L971.197,467.071C972.34,467.071 973.318,466.078 974.131,464.093C974.945,462.107 975.373,459.72 975.417,456.93L975.615,456.93ZM975.615,367.751L975.417,367.751C975.417,364.961 975,362.573 974.164,360.588C973.329,358.602 972.34,357.61 971.197,357.61L970.406,357.61L970.34,356L975.615,356L975.615,367.751Z" style="fill-rule:nonzero;"/>
        <path d="M1137.11,356L1137.11,468.681L1132.83,468.681L1132.83,356L1137.11,356ZM1154.92,463.69L1154.92,468.681L1136.91,468.681L1136.91,463.69L1154.92,463.69ZM1152.08,410.731L1152.08,415.56L1136.91,415.56L1136.91,410.731L1152.08,410.731ZM1154.92,356L1154.92,360.99L1136.91,360.99L1136.91,356L1154.92,356ZM1158.94,442.603L1155.11,468.681L1144.17,468.681L1146.54,463.69C1148.87,463.69 1150.77,462.805 1152.25,461.034C1153.72,459.264 1154.92,456.769 1155.84,453.549C1156.76,450.33 1157.58,446.681 1158.28,442.603L1158.94,442.603ZM1152.08,415.238L1152.08,425.862L1151.42,425.862L1151.42,423.447C1151.42,421.301 1151.11,419.45 1150.5,417.894C1149.88,416.338 1149.13,415.56 1148.26,415.56L1148.26,415.238L1152.08,415.238ZM1152.08,400.428L1152.08,411.052L1148.26,411.052L1148.26,410.731C1149.13,410.623 1149.88,409.792 1150.5,408.235C1151.11,406.679 1151.42,404.828 1151.42,402.682L1151.42,400.428L1152.08,400.428ZM1154.92,360.507L1154.92,373.385L1154.26,373.385L1154.26,370.487C1154.26,367.912 1153.88,365.685 1153.13,363.807C1152.39,361.929 1151.46,360.936 1150.37,360.829L1150.37,360.507L1154.92,360.507ZM1154.92,353.103L1154.92,357.771L1146.87,356C1147.84,356 1148.86,355.839 1149.94,355.517C1151.01,355.195 1152.01,354.82 1152.94,354.39C1153.86,353.961 1154.52,353.532 1154.92,353.103ZM1133.02,456.93L1133.02,468.681L1127.75,468.681L1127.75,467.071L1128.6,467.071C1129.75,467.071 1130.73,466.078 1131.54,464.093C1132.35,462.107 1132.78,459.72 1132.83,456.93L1133.02,456.93ZM1133.02,367.751L1132.83,367.751C1132.83,364.961 1132.41,362.573 1131.57,360.588C1130.74,358.602 1129.75,357.61 1128.6,357.61L1127.81,357.61L1127.75,356L1133.02,356L1133.02,367.751Z" style="fill-rule:nonzero;"/>
        <path d="M1275,353.585L1313.31,453.388L1313.9,470.934L1275.59,371.292L1275,353.585ZM1275.13,457.252L1275.13,468.681L1269.66,468.681L1269.66,467.071L1270.91,467.071C1272.01,467.071 1272.95,466.105 1273.75,464.173C1274.54,462.242 1274.93,459.934 1274.93,457.252L1275.13,457.252ZM1277.97,457.252C1277.97,459.934 1278.36,462.242 1279.15,464.173C1279.94,466.105 1280.89,467.071 1281.99,467.071L1283.24,467.071L1283.24,468.681L1277.77,468.681L1277.77,457.252L1277.97,457.252ZM1275,353.585L1277.9,362.6L1277.97,468.681L1274.93,468.681L1274.93,373.707C1274.93,368.234 1274.83,363.512 1274.64,359.541C1274.44,355.571 1274.34,353.585 1274.34,353.585L1275,353.585ZM1313.9,356L1313.9,450.33C1313.9,453.764 1313.95,457.064 1314.04,460.229C1314.12,463.395 1314.22,465.971 1314.33,467.956C1314.44,469.941 1314.5,470.934 1314.5,470.934L1313.9,470.934L1310.94,462.403L1310.94,356L1313.9,356ZM1319.18,356L1319.18,357.61L1317.99,357.61C1316.89,357.61 1315.95,358.549 1315.16,360.427C1314.37,362.305 1313.95,364.639 1313.9,367.429L1313.71,367.429L1313.71,356L1319.18,356ZM1305.6,356L1311.07,356L1311.07,367.429L1310.94,367.429C1310.89,364.639 1310.49,362.305 1309.72,360.427C1308.95,358.549 1307.99,357.61 1306.85,357.61L1305.6,357.61L1305.6,356Z" style="fill-rule:nonzero;"/>
        <path d="M1450.21,356.483L1450.21,468.681L1445.92,468.681L1445.92,356.483L1450.21,356.483ZM1467.16,355.839L1467.16,360.668L1428.98,360.668L1428.98,355.839L1467.16,355.839ZM1467.16,360.185L1467.16,373.224L1466.5,373.063L1466.5,370.327C1466.5,367.644 1466.11,365.39 1465.35,363.566C1464.58,361.741 1463.66,360.776 1462.61,360.668L1462.61,360.185L1467.16,360.185ZM1467.16,352.942L1467.16,357.61L1459.11,355.839C1460.08,355.839 1461.1,355.678 1462.18,355.356C1463.26,355.034 1464.26,354.659 1465.18,354.229C1466.1,353.8 1466.76,353.371 1467.16,352.942ZM1446.12,456.93L1446.12,468.681L1440.85,468.681L1440.85,467.071L1441.7,467.071C1442.85,467.071 1443.83,466.078 1444.64,464.093C1445.45,462.107 1445.88,459.72 1445.92,456.93L1446.12,456.93ZM1450.01,456.93L1450.21,456.93C1450.26,459.72 1450.68,462.107 1451.5,464.093C1452.31,466.078 1453.29,467.071 1454.43,467.071L1455.29,467.071L1455.29,468.681L1450.01,468.681L1450.01,456.93ZM1433.53,360.185L1433.53,360.668C1432.43,360.776 1431.51,361.741 1430.76,363.566C1430.01,365.39 1429.64,367.644 1429.64,370.327L1429.64,373.063L1428.98,373.224L1428.98,360.185L1433.53,360.185ZM1428.98,352.942C1429.42,353.371 1430.09,353.8 1430.99,354.229C1431.89,354.659 1432.89,355.034 1433.99,355.356C1435.09,355.678 1436.1,355.839 1437.02,355.839L1428.98,357.61L1428.98,352.942Z" style="fill-rule:nonzero;"/>
        <path d="M1592.98,353.746L1612.5,467.715L1606.89,467.715L1591.66,369.039L1592.98,353.746ZM1578.8,456.93C1578.49,459.076 1578.45,460.9 1578.67,462.403C1578.89,463.905 1579.25,465.059 1579.76,465.864C1580.26,466.668 1580.78,467.071 1581.31,467.071L1581.9,467.071L1581.9,468.681L1568.64,468.681L1568.64,467.071L1569.24,467.071C1570.25,467.071 1571.29,466.293 1572.37,464.737C1573.45,463.181 1574.34,460.578 1575.04,456.93L1578.8,456.93ZM1592.98,353.746L1593.57,365.014L1577.02,468.198L1573.06,468.198L1589.94,370.327C1589.94,370.327 1590.07,369.656 1590.31,368.314C1590.55,366.973 1590.84,365.336 1591.16,363.405C1591.5,361.473 1591.78,359.595 1592.02,357.771C1592.26,355.946 1592.38,354.605 1592.38,353.746L1592.98,353.746ZM1602.28,424.735L1602.28,429.564L1581.64,429.564L1581.64,424.735L1602.28,424.735ZM1605.24,456.93L1610.65,456.93C1611.31,460.578 1612.19,463.181 1613.29,464.737C1614.39,466.293 1615.44,467.071 1616.45,467.071L1616.98,467.071L1616.98,468.681L1602.14,468.681L1602.14,467.071L1602.74,467.071C1603.57,467.071 1604.32,466.185 1604.98,464.415C1605.64,462.644 1605.73,460.149 1605.24,456.93Z" style="fill-rule:nonzero;"/>
        <path d="M1735.09,356L1735.09,468.681L1730.8,468.681L1730.8,356L1735.09,356ZM1752.89,463.69L1752.89,468.681L1734.89,468.681L1734.89,463.69L1752.89,463.69ZM1756.91,442.603L1753.09,468.681L1742.14,468.681L1744.52,463.69C1746.85,463.69 1748.75,462.805 1750.22,461.034C1751.69,459.264 1752.89,456.769 1753.81,453.549C1754.74,450.33 1755.55,446.681 1756.25,442.603L1756.91,442.603ZM1731,456.93L1731,468.681L1725.72,468.681L1725.72,467.071L1726.58,467.071C1727.72,467.071 1728.7,466.078 1729.51,464.093C1730.33,462.107 1730.76,459.72 1730.8,456.93L1731,456.93ZM1731,367.751L1730.8,367.751C1730.76,364.961 1730.33,362.573 1729.51,360.588C1728.7,358.602 1727.72,357.61 1726.58,357.61L1725.72,357.61L1725.72,356L1731,356L1731,367.751ZM1734.89,367.751L1734.89,356L1740.16,356L1740.16,357.61L1739.31,357.61C1738.16,357.61 1737.19,358.602 1736.37,360.588C1735.56,362.573 1735.13,364.961 1735.09,367.751L1734.89,367.751Z" style="fill-rule:nonzero;"/>
    </g>
    <g transform="matrix(0.476822,0,0,0.26804,-449.72,-81.1912)">
        <path d="M1012.74,356L1027.52,356C1030.67,356 1033.52,356.808 1036.07,358.425C1038.62,360.042 1040.77,362.373 1042.52,365.42C1044.26,368.467 1045.61,372.136 1046.55,376.426C1047.5,380.716 1047.97,385.598 1047.97,391.069C1047.97,397.039 1047.18,402.759 1045.61,408.231C1044.04,413.703 1041.9,418.149 1039.21,421.569C1036.52,424.989 1033.5,426.699 1030.14,426.699C1031.33,427.569 1032.62,429.341 1034.02,432.015C1035.42,434.689 1036.64,437.269 1037.69,439.756C1037.69,439.756 1038.16,440.969 1039.11,443.394C1040.05,445.819 1041.24,448.772 1042.67,452.254C1044.11,455.736 1045.56,459.156 1047.03,462.514C1048.49,465.872 1049.75,468.546 1050.8,470.535C1052.2,473.271 1053.6,475.696 1055,477.81C1056.39,479.924 1057.91,481.603 1059.56,482.847C1061.2,484.091 1063.03,484.712 1065.06,484.712L1065.06,486.578L1059.29,486.578C1056.08,486.578 1053.3,485.707 1050.96,483.966C1048.62,482.225 1046.64,480.08 1045.03,477.531C1043.42,474.981 1042.06,472.525 1040.94,470.162C1040.73,469.665 1040.16,468.235 1039.21,465.872C1038.27,463.509 1037.15,460.68 1035.86,457.384C1034.57,454.089 1033.29,450.824 1032.03,447.591C1030.77,444.358 1029.69,441.591 1028.78,439.29C1027.87,436.989 1027.35,435.652 1027.21,435.279C1025.88,432.17 1024.41,429.31 1022.8,426.699C1021.2,424.087 1019.45,422.781 1017.56,422.781L1017.56,420.916C1017.56,420.916 1018.1,420.947 1019.19,421.009C1020.27,421.071 1021.58,421.04 1023.12,420.916C1024.93,420.791 1026.93,420.294 1029.09,419.423C1031.26,418.553 1033.29,416.75 1035.18,414.014C1037.06,411.278 1038.5,407.112 1039.48,401.516C1039.68,400.148 1039.86,398.438 1040,396.386C1040.14,394.334 1040.17,392.313 1040.11,390.323C1040.04,381.867 1038.83,375.12 1036.49,370.084C1034.14,365.047 1031.02,362.342 1027.1,361.969C1025.14,361.721 1023.13,361.627 1021.07,361.689C1019.01,361.752 1017.28,361.783 1015.88,361.783L1013.78,361.783C1013.78,361.658 1013.7,361.13 1013.52,360.197C1013.35,359.264 1012.74,356 1012.74,356ZM1014.1,356L1014.1,486.578L1007.28,486.578L1007.28,356L1014.1,356ZM1007.6,472.96L1007.6,486.578L999.209,486.578L999.209,484.712L1000.57,484.712C1002.39,484.712 1003.95,483.562 1005.24,481.261C1006.53,478.961 1007.21,476.194 1007.28,472.96L1007.6,472.96ZM1007.6,369.617L1007.28,369.617C1007.21,366.384 1006.53,363.617 1005.24,361.316C1003.95,359.016 1002.39,357.865 1000.57,357.865L999.209,357.865L999.209,356L1007.6,356L1007.6,369.617ZM1013.78,472.96L1014.1,472.96C1014.1,476.194 1014.76,478.961 1016.09,481.261C1017.42,483.562 1018.99,484.712 1020.81,484.712L1022.07,484.712L1022.07,486.578L1013.78,486.578L1013.78,472.96Z" style="fill-rule:nonzero;"/>
        <path d="M1094.95,372.042L1123.78,485.458L1115.5,485.458L1093.16,388.644L1094.95,372.042ZM1074.71,472.96C1073.94,476.691 1074.05,479.582 1075.02,481.634C1076,483.686 1077.12,484.712 1078.38,484.712L1079.22,484.712L1079.22,486.578L1059.19,486.578L1059.19,484.712L1060.03,484.712C1061.5,484.712 1063,483.811 1064.54,482.007C1066.08,480.204 1067.4,477.189 1068.52,472.96L1074.71,472.96ZM1094.95,372.042L1095.68,384.914L1071.67,486.018L1065.06,486.018L1089.91,391.256C1089.91,391.256 1090.11,390.51 1090.49,389.018C1090.88,387.525 1091.33,385.691 1091.85,383.515C1092.38,381.338 1092.85,379.193 1093.27,377.079C1093.69,374.965 1093.93,373.286 1094,372.042L1094.95,372.042ZM1107.32,443.114L1107.32,448.71L1079.53,448.71L1079.53,443.114L1107.32,443.114ZM1112.67,472.96L1120.64,472.96C1121.69,477.189 1122.98,480.204 1124.52,482.007C1126.06,483.811 1127.52,484.712 1128.92,484.712L1129.76,484.712L1129.76,486.578L1108.26,486.578L1108.26,484.712L1109.1,484.712C1110.29,484.712 1111.38,483.686 1112.35,481.634C1113.33,479.582 1113.44,476.691 1112.67,472.96Z" style="fill-rule:nonzero;"/>
        <path d="M1140.56,371.856L1198.65,469.23L1199.7,489.189L1141.61,391.256L1140.56,371.856ZM1140.77,475.012L1140.77,486.578L1132.91,486.578L1132.91,484.712L1134.69,484.712C1136.3,484.712 1137.66,483.78 1138.78,481.914C1139.9,480.049 1140.46,477.748 1140.46,475.012L1140.77,475.012ZM1145.17,475.012C1145.17,477.748 1145.75,480.049 1146.91,481.914C1148.06,483.78 1149.4,484.712 1150.94,484.712L1152.73,484.712L1152.73,486.578L1144.86,486.578L1144.86,475.012L1145.17,475.012ZM1140.56,371.856L1145.07,382.302L1145.17,486.578L1140.46,486.578L1140.46,395.173C1140.46,388.831 1140.3,383.359 1139.99,378.758C1139.67,374.157 1139.51,371.856 1139.51,371.856L1140.56,371.856ZM1199.7,374.654L1199.7,465.312C1199.7,469.292 1199.77,473.116 1199.91,476.784C1200.05,480.453 1200.21,483.438 1200.38,485.738C1200.56,488.039 1200.65,489.189 1200.65,489.189L1199.7,489.189L1195.09,479.303L1195.09,374.654L1199.7,374.654ZM1199.39,386.219L1199.39,374.654L1207.25,374.654L1207.25,376.519L1205.47,376.519C1203.93,376.519 1202.59,377.452 1201.43,379.317C1200.28,381.183 1199.7,383.483 1199.7,386.219L1199.39,386.219ZM1195.09,386.219C1195.02,383.483 1194.42,381.183 1193.31,379.317C1192.19,377.452 1190.83,376.519 1189.22,376.519L1187.43,376.519L1187.43,374.654L1195.3,374.654L1195.3,386.219L1195.09,386.219Z" style="fill-rule:nonzero;"/>
        <path d="M1250.04,372.042C1253.25,372.042 1256.28,372.447 1259.11,373.255C1261.94,374.063 1264.63,375.307 1267.18,376.986C1269.73,378.665 1272.16,380.81 1274.47,383.421L1276.78,409.723L1275.83,409.723C1274.85,402.386 1273.26,396.355 1271.06,391.629C1268.86,386.903 1266.01,383.39 1262.52,381.09C1259.02,378.789 1254.83,377.639 1249.93,377.639C1244.62,377.639 1239.95,379.784 1235.93,384.074C1231.91,388.365 1228.79,394.458 1226.55,402.355C1224.31,410.252 1223.19,419.672 1223.19,430.616C1223.19,441.435 1224.31,450.824 1226.55,458.783C1228.79,466.742 1231.93,472.867 1235.99,477.157C1240.04,481.448 1244.72,483.593 1250.04,483.593C1252.97,483.593 1255.77,483.033 1258.42,481.914C1261.08,480.795 1263.65,479.023 1266.13,476.598C1268.61,474.173 1270.94,471.095 1273.11,467.364L1273.21,442.554C1273.28,440.192 1272.88,438.388 1272.01,437.145C1271.13,435.901 1269.92,435.279 1268.39,435.279L1266.92,435.279L1266.92,433.414L1286.11,433.414L1286.11,435.279L1284.64,435.279C1281.5,435.279 1279.92,437.767 1279.92,442.741L1279.92,465.126C1278.31,468.732 1276.11,472.401 1273.32,476.131C1270.52,479.862 1267.18,482.971 1263.3,485.458C1259.42,487.946 1255,489.189 1250.04,489.189C1243.12,489.065 1237.09,486.64 1231.95,481.914C1226.81,477.189 1222.81,470.473 1219.94,461.768C1217.08,453.063 1215.64,442.679 1215.64,430.616C1215.64,418.429 1217.08,407.982 1219.94,399.277C1222.81,390.572 1226.83,383.857 1232,379.131C1237.17,374.405 1243.18,372.042 1250.04,372.042Z" style="fill-rule:nonzero;"/>
        <path d="M1306.66,374.654L1306.66,486.578L1299.95,486.578L1299.95,374.654L1306.66,374.654ZM1334.87,480.795L1334.66,486.578L1306.45,486.578L1306.45,480.795L1334.87,480.795ZM1329.94,427.818L1329.94,433.414L1306.45,433.414L1306.45,427.818L1329.94,427.818ZM1334.76,374.654L1334.76,380.437L1306.45,380.437L1306.45,374.654L1334.76,374.654ZM1340.74,459.903L1334.97,486.578L1319.04,486.578L1322.6,480.795C1326.1,480.795 1328.91,479.893 1331.04,478.09C1333.17,476.287 1334.9,473.8 1336.23,470.629C1337.56,467.457 1338.71,463.882 1339.69,459.903L1340.74,459.903ZM1329.94,433.041L1329.94,443.674L1328.79,443.674L1328.79,441.249C1328.79,439.134 1328.44,437.3 1327.74,435.746C1327.04,434.191 1325.96,433.414 1324.49,433.414L1324.49,433.041L1329.94,433.041ZM1329.94,417.558L1329.94,428.191L1324.49,428.191L1324.49,427.818C1325.96,427.818 1327.04,427.04 1327.74,425.486C1328.44,423.931 1328.79,422.097 1328.79,419.983L1328.79,417.558L1329.94,417.558ZM1334.76,379.877L1334.76,392.748L1333.61,392.748L1333.61,389.95C1333.61,387.339 1333.14,385.1 1332.19,383.235C1331.25,381.369 1329.98,380.437 1328.37,380.437L1328.37,379.877L1334.76,379.877ZM1334.76,371.669L1334.76,376.519L1322.81,374.654C1324.98,374.654 1327.28,374.312 1329.73,373.628C1332.18,372.944 1333.86,372.291 1334.76,371.669ZM1300.16,474.639L1301.52,486.578L1292.4,486.578L1292.4,484.712L1293.87,484.712C1295.62,484.712 1297.05,483.717 1298.17,481.728C1299.29,479.738 1299.88,477.375 1299.95,474.639L1300.16,474.639ZM1300.16,386.406L1299.95,386.406C1299.88,383.546 1299.29,381.183 1298.17,379.317C1297.05,377.452 1295.62,376.519 1293.87,376.519L1292.4,376.519L1292.4,374.654L1301.52,374.654L1300.16,386.406Z" style="fill-rule:nonzero;"/>
        <path d="M1362.87,374.654L1362.87,486.578L1356.16,486.578L1356.16,374.654L1362.87,374.654ZM1391.07,480.795L1390.87,486.578L1362.66,486.578L1362.66,480.795L1391.07,480.795ZM1396.95,459.903L1391.18,486.578L1375.24,486.578L1378.81,480.795C1382.3,480.795 1385.12,479.893 1387.25,478.09C1389.38,476.287 1391.11,473.8 1392.44,470.629C1393.77,467.457 1394.92,463.882 1395.9,459.903L1396.95,459.903ZM1356.37,474.639L1357.73,486.578L1348.61,486.578L1348.61,484.712L1350.07,484.712C1351.82,484.712 1353.26,483.717 1354.37,481.728C1355.49,479.738 1356.09,477.375 1356.16,474.639L1356.37,474.639ZM1362.55,386.592L1362.55,374.654L1370.31,374.654L1370.31,376.519L1369.05,376.519C1367.38,376.519 1365.92,377.483 1364.7,379.411C1363.48,381.338 1362.87,383.732 1362.87,386.592L1362.55,386.592ZM1356.37,386.592L1356.16,386.592C1356.09,383.732 1355.46,381.338 1354.27,379.411C1353.08,377.483 1351.61,376.519 1349.86,376.519L1348.61,376.519L1348.61,374.654L1356.37,374.654L1356.37,386.592Z" style="fill-rule:nonzero;"/>
        <path d="M1499.71,432.108L1498.45,461.395C1496.63,466.742 1494.35,471.499 1491.58,475.665C1488.82,479.831 1485.57,483.127 1481.83,485.552C1478.09,487.977 1473.81,489.189 1468.99,489.189C1461.72,489.065 1455.25,486.205 1449.59,480.608C1443.92,475.012 1439.5,467.147 1436.32,457.011C1433.14,446.876 1431.55,434.906 1431.55,421.102C1431.55,407.547 1433.12,395.702 1436.27,385.567C1439.41,375.431 1443.84,367.534 1449.53,361.876C1455.23,356.218 1461.92,353.388 1469.62,353.388C1474.79,353.388 1479.45,354.601 1483.61,357.026C1487.77,359.451 1491.39,362.467 1494.47,366.073L1496.57,392.375L1495.62,392.375C1494.08,381.432 1490.94,373.131 1486.18,367.472C1481.43,361.814 1475.91,358.985 1469.62,358.985C1463.46,358.985 1458.13,361.565 1453.62,366.726C1449.12,371.887 1445.62,379.1 1443.14,388.365C1440.66,397.629 1439.41,408.48 1439.41,420.916C1439.41,433.352 1440.66,444.233 1443.14,453.56C1445.62,462.887 1449.08,470.162 1453.52,475.385C1457.96,480.608 1463.11,483.344 1468.99,483.593C1473.95,483.593 1478.55,481.945 1482.78,478.65C1487.01,475.354 1490.55,469.945 1493.42,462.421C1496.29,454.897 1498.1,444.793 1498.87,432.108L1499.71,432.108Z" style="fill-rule:nonzero;"/>
        <path d="M1570.18,374.654L1570.18,486.578L1563.47,486.578L1563.47,374.654L1570.18,374.654ZM1524.77,374.654L1524.77,486.578L1518.06,486.578L1518.06,374.654L1524.77,374.654ZM1564.51,428.564L1564.51,434.16L1523.62,434.16L1523.62,428.564L1564.51,428.564ZM1518.38,474.639L1518.38,486.578L1510.72,486.578L1510.72,484.712L1511.98,484.712C1513.66,484.712 1515.07,483.717 1516.23,481.728C1517.38,479.738 1517.99,477.375 1518.06,474.639L1518.38,474.639ZM1524.46,474.639L1524.77,474.639C1524.77,477.375 1525.37,479.738 1526.56,481.728C1527.74,483.717 1529.18,484.712 1530.85,484.712L1532.11,484.712L1532.11,486.578L1524.46,486.578L1524.46,474.639ZM1524.46,386.592L1524.46,374.654L1532.11,374.654L1532.11,376.519L1530.85,376.519C1529.18,376.519 1527.74,377.483 1526.56,379.411C1525.37,381.338 1524.77,383.732 1524.77,386.592L1524.46,386.592ZM1518.38,386.592L1518.06,386.592C1517.99,383.732 1517.38,381.338 1516.23,379.411C1515.07,377.483 1513.66,376.519 1511.98,376.519L1510.72,376.519L1510.72,374.654L1518.38,374.654L1518.38,386.592ZM1563.78,474.639L1563.78,486.578L1556.13,486.578L1556.13,484.712L1557.38,484.712C1559.06,484.712 1560.48,483.717 1561.63,481.728C1562.78,479.738 1563.4,477.375 1563.47,474.639L1563.78,474.639ZM1569.86,474.639L1570.18,474.639C1570.25,477.375 1570.86,479.738 1572.01,481.728C1573.17,483.717 1574.58,484.712 1576.26,484.712L1577.52,484.712L1577.52,486.578L1569.86,486.578L1569.86,474.639ZM1569.86,386.592L1569.86,374.654L1577.52,374.654L1577.52,376.519L1576.26,376.519C1574.58,376.519 1573.17,377.483 1572.01,379.411C1570.86,381.338 1570.25,383.732 1570.18,386.592L1569.86,386.592ZM1563.78,386.592L1563.47,386.592C1563.4,383.732 1562.78,381.338 1561.63,379.411C1560.48,377.483 1559.06,376.519 1557.38,376.519L1556.13,376.519L1556.13,374.654L1563.78,374.654L1563.78,386.592Z" style="fill-rule:nonzero;"/>
        <path d="M1618.41,372.042L1647.25,485.458L1638.97,485.458L1616.63,388.644L1618.41,372.042ZM1598.17,472.96C1597.41,476.691 1597.51,479.582 1598.49,481.634C1599.47,483.686 1600.59,484.712 1601.85,484.712L1602.68,484.712L1602.68,486.578L1582.65,486.578L1582.65,484.712L1583.49,484.712C1584.96,484.712 1586.47,483.811 1588,482.007C1589.54,480.204 1590.87,477.189 1591.99,472.96L1598.17,472.96ZM1618.41,372.042L1619.15,384.914L1595.13,486.018L1588.53,486.018L1613.38,391.256C1613.38,391.256 1613.57,390.51 1613.96,389.018C1614.34,387.525 1614.8,385.691 1615.32,383.515C1615.84,381.338 1616.32,379.193 1616.74,377.079C1617.15,374.965 1617.4,373.286 1617.47,372.042L1618.41,372.042ZM1630.79,443.114L1630.79,448.71L1603,448.71L1603,443.114L1630.79,443.114ZM1636.13,472.96L1644.1,472.96C1645.15,477.189 1646.45,480.204 1647.98,482.007C1649.52,483.811 1650.99,484.712 1652.39,484.712L1653.23,484.712L1653.23,486.578L1631.73,486.578L1631.73,484.712L1632.57,484.712C1633.76,484.712 1634.84,483.686 1635.82,481.634C1636.8,479.582 1636.9,476.691 1636.13,472.96Z" style="fill-rule:nonzero;"/>
        <path d="M1691.71,372.042C1696.6,372.042 1701.2,373.441 1705.5,376.24C1709.8,379.038 1713.57,383.048 1716.83,388.271C1720.08,393.494 1722.61,399.681 1724.43,406.832C1726.25,413.983 1727.15,421.911 1727.15,430.616C1727.15,439.321 1726.25,447.249 1724.43,454.4C1722.61,461.55 1720.08,467.737 1716.83,472.96C1713.57,478.183 1709.8,482.194 1705.5,484.992C1701.2,487.79 1696.6,489.189 1691.71,489.189C1686.82,489.189 1682.24,487.79 1677.97,484.992C1673.71,482.194 1669.95,478.183 1666.7,472.96C1663.45,467.737 1660.92,461.55 1659.1,454.4C1657.28,447.249 1656.37,439.321 1656.37,430.616C1656.37,421.911 1657.28,413.983 1659.1,406.832C1660.92,399.681 1663.45,393.494 1666.7,388.271C1669.95,383.048 1673.71,379.038 1677.97,376.24C1682.24,373.441 1686.82,372.042 1691.71,372.042ZM1691.71,483.593C1696.88,483.593 1701.57,481.355 1705.76,476.878C1709.96,472.401 1713.28,466.183 1715.72,458.224C1718.17,450.265 1719.39,441.062 1719.39,430.616C1719.39,420.045 1718.17,410.812 1715.72,402.915C1713.28,395.018 1709.96,388.831 1705.76,384.354C1701.57,379.877 1696.88,377.639 1691.71,377.639C1686.61,377.639 1681.96,379.877 1677.76,384.354C1673.57,388.831 1670.25,395.018 1667.8,402.915C1665.36,410.812 1664.13,420.045 1664.13,430.616C1664.13,441.062 1665.36,450.265 1667.8,458.224C1670.25,466.183 1673.57,472.401 1677.76,476.878C1681.96,481.355 1686.61,483.593 1691.71,483.593Z" style="fill-rule:nonzero;"/>
    </g>
</svg>
