<?xml version="1.0" encoding="UTF-8" standalone="no"?><!DOCTYPE svg PUBLIC "-//W3C//DTD SVG 1.1//EN" "http://www.w3.org/Graphics/SVG/1.1/DTD/svg11.dtd"><svg width="100%" height="100%" viewBox="0 0 5209 1217" version="1.1" xmlns="http://www.w3.org/2000/svg" xmlns:xlink="http://www.w3.org/1999/xlink" xml:space="preserve" xmlns:serif="http://www.serif.com/" style="fill-rule:evenodd;clip-rule:evenodd;stroke-linecap:round;stroke-linejoin:round;stroke-miterlimit:1.5;"><g><g><path d="M496.146,168.93l68.542,-0c14.583,-0 27.789,2.106 39.618,6.319c11.829,4.213 21.794,10.289 29.896,18.229c8.102,7.94 14.34,17.5 18.715,28.681c4.375,11.18 6.563,23.9 6.563,38.16c-0,15.555 -3.646,30.463 -10.938,44.722c-7.291,14.259 -17.176,25.845 -29.652,34.757c-12.477,8.912 -26.494,13.368 -42.049,13.368c5.509,2.269 11.504,6.887 17.986,13.854c6.481,6.968 12.153,13.693 17.014,20.174c-0,0 2.187,3.16 6.562,9.479c4.375,6.32 9.885,14.017 16.528,23.091c6.644,9.074 13.368,17.986 20.174,26.736c6.805,8.75 12.639,15.717 17.5,20.903c6.481,7.129 12.963,13.449 19.444,18.958c6.482,5.509 13.531,9.884 21.146,13.125c7.616,3.241 16.123,4.861 25.521,4.861l0,4.861l-26.736,0c-14.907,0 -27.789,-2.268 -38.646,-6.805c-10.856,-4.537 -20.012,-10.128 -27.465,-16.771c-7.454,-6.644 -13.773,-13.044 -18.959,-19.202c-0.972,-1.296 -3.645,-5.023 -8.02,-11.18c-4.376,-6.158 -9.561,-13.53 -15.556,-22.118c-5.995,-8.588 -11.91,-17.095 -17.743,-25.521c-5.834,-8.426 -10.857,-15.637 -15.07,-21.632c-4.213,-5.996 -6.643,-9.479 -7.291,-10.452c-6.158,-8.101 -12.963,-15.555 -20.417,-22.361c-7.454,-6.805 -15.556,-10.208 -24.306,-10.208l0,-4.861c0,-0 2.512,0.081 7.535,0.243c5.023,0.162 11.1,0.081 18.229,-0.243c8.426,-0.324 17.662,-1.621 27.709,-3.889c10.046,-2.269 19.444,-6.968 28.194,-14.097c8.75,-7.13 15.394,-17.987 19.931,-32.57c0.972,-3.565 1.782,-8.021 2.43,-13.368c0.648,-5.347 0.811,-10.614 0.486,-15.799c-0.324,-22.037 -5.914,-39.618 -16.77,-52.743c-10.857,-13.125 -25.359,-20.174 -43.507,-21.146c-9.075,-0.648 -18.392,-0.891 -27.952,-0.729c-9.56,0.162 -17.581,0.243 -24.063,0.243l-9.722,0c0,-0.324 -0.405,-1.701 -1.215,-4.132c-0.81,-2.43 -3.646,-10.937 -3.646,-10.937Zm6.32,-0l-0,340.278l-31.598,0l0,-340.278l31.598,-0Zm-30.139,304.792l-0,35.486l-38.889,0l-0,-4.861l6.319,0c8.426,0 15.637,-2.997 21.632,-8.993c5.995,-5.995 9.155,-13.206 9.479,-21.632l1.459,0Zm-0,-269.306l-1.459,-0c-0.324,-8.426 -3.484,-15.637 -9.479,-21.632c-5.995,-5.996 -13.206,-8.993 -21.632,-8.993l-6.319,-0l-0,-4.861l38.889,-0l-0,35.486Zm28.68,269.306l1.459,0c-0,8.426 3.078,15.637 9.236,21.632c6.157,5.996 13.449,8.993 21.875,8.993l5.833,0l0,4.861l-38.403,0l0,-35.486Z" style="fill-rule:nonzero;"/><g><path d="M974.48,210.735l133.681,295.557l-38.403,-0l-103.542,-252.293l8.264,-43.264Zm-93.82,262.987c-3.565,9.722 -3.079,17.257 1.458,22.604c4.537,5.348 9.723,8.021 15.556,8.021l3.889,0l-0,4.861l-92.848,0l0,-4.861l3.889,0c6.806,0 13.773,-2.349 20.903,-7.048c7.13,-4.7 13.287,-12.558 18.472,-23.577l28.681,0Zm93.82,-262.987l3.402,33.542l-111.319,263.473l-30.625,-0l115.208,-246.945c0,-0 0.891,-1.945 2.674,-5.834c1.782,-3.888 3.889,-8.669 6.319,-14.34c2.431,-5.671 4.618,-11.261 6.563,-16.771c1.944,-5.509 3.079,-9.884 3.403,-13.125l4.375,0Zm57.361,185.209l-0,14.583l-128.82,0l0,-14.583l128.82,0Zm24.792,77.778l36.944,0c4.861,11.019 10.857,18.877 17.986,23.577c7.13,4.699 13.936,7.048 20.417,7.048l3.889,0l-0,4.861l-99.653,0l-0,-4.861l3.889,0c5.509,0 10.532,-2.673 15.069,-8.021c4.537,-5.347 5.023,-12.882 1.459,-22.604Z" style="fill-rule:nonzero;"/><path d="M1283.16,210.249l269.307,253.751l4.861,52.014l-269.306,-255.209l-4.862,-50.556Zm0.973,268.82l-0,30.139l-36.459,0l0,-4.861l8.264,0c7.454,0 13.773,-2.43 18.959,-7.291c5.185,-4.862 7.777,-10.857 7.777,-17.987l1.459,0Zm20.416,0c0,7.13 2.674,13.125 8.021,17.987c5.348,4.861 11.586,7.291 18.716,7.291l8.264,0l-0,4.861l-36.459,0l0,-30.139l1.458,0Zm-21.389,-268.82l20.903,27.222l0.486,271.737l-21.875,0l0,-238.195c0,-16.528 -0.729,-30.787 -2.187,-42.778c-1.458,-11.99 -2.188,-17.986 -2.188,-17.986l4.861,0Zm274.168,7.292l-0,236.251c-0,10.37 0.324,20.335 0.972,29.895c0.648,9.561 1.377,17.338 2.188,23.334c0.81,5.995 1.215,8.993 1.215,8.993l-4.375,-0l-21.389,-25.764l-0,-272.709l21.389,-0Zm-1.458,30.139l-0,-30.139l36.458,-0l0,4.861l-8.264,-0c-7.13,-0 -13.368,2.431 -18.715,7.292c-5.347,4.861 -8.021,10.856 -8.021,17.986l-1.458,-0Zm-19.931,-0c-0.324,-7.13 -3.079,-13.125 -8.264,-17.986c-5.185,-4.861 -11.505,-7.292 -18.958,-7.292l-8.264,-0l-0,-4.861l36.458,-0l0,30.139l-0.972,-0Z" style="fill-rule:nonzero;"/><path d="M1887.88,210.735c14.907,0 28.924,1.054 42.049,3.16c13.125,2.106 25.602,5.347 37.43,9.722c11.829,4.375 23.091,9.966 33.785,16.771l10.695,68.542l-4.375,-0c-4.538,-19.12 -11.91,-34.838 -22.119,-47.153c-10.208,-12.315 -23.414,-21.47 -39.618,-27.465c-16.204,-5.996 -35.648,-8.993 -58.333,-8.993c-24.63,-0 -46.262,5.59 -64.896,16.771c-18.635,11.18 -33.137,27.06 -43.507,47.639c-10.371,20.578 -15.556,45.127 -15.556,73.646c0,28.194 5.185,52.662 15.556,73.403c10.37,20.74 24.953,36.701 43.75,47.882c18.796,11.18 40.509,16.771 65.139,16.771c13.611,-0 26.574,-1.459 38.889,-4.375c12.315,-2.917 24.224,-7.535 35.729,-13.855c11.505,-6.319 22.28,-14.34 32.327,-24.062l0.486,-64.653c0.324,-6.158 -1.54,-10.857 -5.591,-14.097c-4.051,-3.241 -9.641,-4.862 -16.77,-4.862l-6.806,0l-0,-4.861l88.959,0l-0,4.861l-6.806,0c-14.583,0 -21.875,6.482 -21.875,19.445l-0,58.333c-7.454,9.399 -17.662,18.959 -30.625,28.681c-12.963,9.722 -28.438,17.824 -46.424,24.306c-17.986,6.481 -38.484,9.722 -61.493,9.722c-32.084,-0.324 -60.035,-6.644 -83.855,-18.958c-23.819,-12.315 -42.372,-29.815 -55.659,-52.501c-13.288,-22.685 -19.931,-49.745 -19.931,-81.18c-0,-31.76 6.643,-58.982 19.931,-81.667c13.287,-22.686 31.921,-40.186 55.903,-52.5c23.981,-12.315 51.852,-18.473 83.611,-18.473Z" style="fill-rule:nonzero;"/><path d="M2247.61,217.541l-0,291.667l-31.111,0l-0,-291.667l31.111,-0Zm130.764,276.598l-0.972,15.069l-130.764,0l-0,-15.069l131.736,-0Zm-22.847,-138.056l-0,14.583l-108.889,0l-0,-14.583l108.889,-0Zm22.361,-138.542l-0,15.069l-131.25,0l-0,-15.069l131.25,-0Zm27.708,222.153l-26.736,69.514l-73.889,0l16.528,-15.069c16.204,-0 29.248,-2.35 39.132,-7.049c9.884,-4.699 17.905,-11.18 24.063,-19.444c6.157,-8.264 11.504,-17.581 16.041,-27.952l4.861,0Zm-50.069,-70l-0,27.708l-5.347,0l-0,-6.319c-0,-5.509 -1.621,-10.289 -4.862,-14.34c-3.24,-4.051 -8.263,-6.077 -15.069,-6.077l-0,-0.972l25.278,0Zm-0,-40.347l-0,27.708l-25.278,0l-0,-0.972c6.806,-0 11.829,-2.026 15.069,-6.077c3.241,-4.05 4.862,-8.831 4.862,-14.34l-0,-6.319l5.347,-0Zm22.361,-98.195l-0,33.542l-5.347,-0l-0,-7.292c-0,-6.806 -2.188,-12.639 -6.563,-17.5c-4.375,-4.861 -10.289,-7.292 -17.743,-7.292l0,-1.458l29.653,-0Zm-0,-21.389l-0,12.639l-55.417,-4.861c10.046,-0 20.741,-0.891 32.084,-2.674c11.342,-1.782 19.12,-3.484 23.333,-5.104Zm-160.417,268.334l6.319,31.111l-42.291,0l-0,-4.861l6.805,0c8.102,0 14.746,-2.592 19.931,-7.778c5.185,-5.185 7.94,-11.342 8.264,-18.472l0.972,0Zm-0,-229.931l-0.972,-0c-0.324,-7.454 -3.079,-13.611 -8.264,-18.472c-5.185,-4.861 -11.829,-7.292 -19.931,-7.292l-6.805,-0l-0,-4.861l42.291,-0l-6.319,30.625Z" style="fill-rule:nonzero;"/><path d="M2605.38,217.541l-0,291.667l-31.111,0l-0,-291.667l31.111,-0Zm130.764,276.598l-0.972,15.069l-130.764,0l-0,-15.069l131.736,-0Zm27.222,-54.445l-26.736,69.514l-73.889,0l16.528,-15.069c16.204,-0 29.248,-2.35 39.132,-7.049c9.884,-4.699 17.905,-11.18 24.063,-19.444c6.157,-8.264 11.504,-17.581 16.041,-27.952l4.861,0Zm-188.125,38.403l6.319,31.111l-42.291,0l-0,-4.861l6.805,0c8.102,0 14.746,-2.592 19.931,-7.778c5.185,-5.185 7.94,-11.342 8.264,-18.472l0.972,0Zm28.68,-229.445l0,-31.111l35.973,-0l-0,4.861l-5.834,-0c-7.777,-0 -14.502,2.512 -20.173,7.535c-5.672,5.023 -8.507,11.261 -8.507,18.715l-1.459,0Zm-28.68,0l-0.972,0c-0.324,-7.454 -3.241,-13.692 -8.75,-18.715c-5.51,-5.023 -12.315,-7.535 -20.417,-7.535l-5.833,-0l-0,-4.861l35.972,-0l-0,31.111Z" style="fill-rule:nonzero;"/><path d="M3434.2,367.263l-5.833,76.32c-8.426,13.935 -19.039,26.331 -31.84,37.188c-12.801,10.856 -27.871,19.444 -45.209,25.764c-17.338,6.319 -37.187,9.479 -59.549,9.479c-33.703,-0.324 -63.68,-7.778 -89.93,-22.361c-26.25,-14.584 -46.748,-35.081 -61.494,-61.493c-14.745,-26.413 -22.118,-57.605 -22.118,-93.577c0,-35.324 7.292,-66.192 21.875,-92.605c14.584,-26.412 35.081,-46.99 61.494,-61.736c26.412,-14.745 57.442,-22.118 93.09,-22.118c23.982,0 45.614,3.16 64.896,9.479c19.283,6.32 36.053,14.178 50.313,23.577l9.722,68.542l-4.375,-0c-7.13,-28.519 -21.713,-50.151 -43.75,-64.896c-22.037,-14.746 -47.639,-22.119 -76.806,-22.119c-28.519,0 -53.229,6.725 -74.132,20.174c-20.903,13.449 -37.107,32.246 -48.611,56.389c-11.505,24.144 -17.257,52.419 -17.257,84.827c-0,32.407 5.752,60.764 17.257,85.069c11.504,24.306 27.546,43.264 48.125,56.876c20.579,13.611 44.479,20.74 71.701,21.389c23.01,-0 44.318,-4.294 63.924,-12.882c19.607,-8.588 36.054,-22.686 49.341,-42.292c13.287,-19.607 21.713,-45.938 25.277,-78.994l3.889,0Z" style="fill-rule:nonzero;"/><path d="M3858.09,217.541l0,291.667l-31.111,0l-0,-291.667l31.111,-0Zm-210.487,-0l0,291.667l-31.111,0l0,-291.667l31.111,-0Zm184.237,140.486l0,14.584l-189.584,-0l0,-14.584l189.584,0Zm-213.889,120.07l-0,31.111l-35.487,0l0,-4.861l5.834,0c7.778,0 14.34,-2.592 19.687,-7.778c5.347,-5.185 8.183,-11.342 8.507,-18.472l1.459,0Zm28.194,0l1.458,0c0,7.13 2.755,13.287 8.264,18.472c5.51,5.186 12.153,7.778 19.931,7.778l5.833,0l0,4.861l-35.486,0l0,-31.111Zm0,-229.445l0,-31.111l35.486,-0l0,4.861l-5.833,-0c-7.778,-0 -14.421,2.512 -19.931,7.535c-5.509,5.023 -8.264,11.261 -8.264,18.715l-1.458,0Zm-28.194,0l-1.459,0c-0.324,-7.454 -3.16,-13.692 -8.507,-18.715c-5.347,-5.023 -11.909,-7.535 -19.687,-7.535l-5.834,-0l0,-4.861l35.487,-0l-0,31.111Zm210.486,229.445l0,31.111l-35.486,0l0,-4.861l5.833,0c7.778,0 14.341,-2.592 19.688,-7.778c5.347,-5.185 8.183,-11.342 8.507,-18.472l1.458,0Zm28.195,0l1.458,0c0.324,7.13 3.16,13.287 8.507,18.472c5.347,5.186 11.91,7.778 19.688,7.778l5.833,0l0,4.861l-35.486,0l-0,-31.111Zm-0,-229.445l-0,-31.111l35.486,-0l0,4.861l-5.833,-0c-7.778,-0 -14.341,2.512 -19.688,7.535c-5.347,5.023 -8.183,11.261 -8.507,18.715l-1.458,0Zm-28.195,0l-1.458,0c-0.324,-7.454 -3.16,-13.692 -8.507,-18.715c-5.347,-5.023 -11.91,-7.535 -19.688,-7.535l-5.833,-0l0,-4.861l35.486,-0l0,31.111Z" style="fill-rule:nonzero;"/><path d="M4178.93,210.735l133.681,295.557l-38.402,-0l-103.542,-252.293l8.263,-43.264Zm-93.819,262.987c-3.565,9.722 -3.079,17.257 1.458,22.604c4.537,5.348 9.722,8.021 15.556,8.021l3.889,0l-0,4.861l-92.848,0l0,-4.861l3.889,0c6.806,0 13.773,-2.349 20.903,-7.048c7.129,-4.7 13.287,-12.558 18.472,-23.577l28.681,0Zm93.819,-262.987l3.403,33.542l-111.32,263.473l-30.625,-0l115.209,-246.945c0,-0 0.891,-1.945 2.674,-5.834c1.782,-3.888 3.889,-8.669 6.319,-14.34c2.431,-5.671 4.618,-11.261 6.563,-16.771c1.944,-5.509 3.078,-9.884 3.402,-13.125l4.375,0Zm57.362,185.209l-0,14.583l-128.82,0l-0,-14.583l128.82,0Zm24.791,77.778l36.945,0c4.861,11.019 10.857,18.877 17.986,23.577c7.13,4.699 13.935,7.048 20.417,7.048l3.889,0l-0,4.861l-99.653,0l-0,-4.861l3.889,0c5.509,0 10.532,-2.673 15.069,-8.021c4.537,-5.347 5.023,-12.882 1.458,-22.604Z" style="fill-rule:nonzero;"/><path d="M4615.92,210.735c22.685,0 43.993,3.646 63.924,10.938c19.931,7.291 37.431,17.743 52.5,31.354c15.07,13.611 26.817,29.734 35.243,48.368c8.426,18.635 12.639,39.294 12.639,61.98c0,22.685 -4.213,43.345 -12.639,61.979c-8.426,18.634 -20.173,34.757 -35.243,48.368c-15.069,13.611 -32.569,24.063 -52.5,31.354c-19.931,7.292 -41.239,10.938 -63.924,10.938c-22.685,-0 -43.912,-3.646 -63.681,-10.938c-19.768,-7.291 -37.187,-17.743 -52.257,-31.354c-15.069,-13.611 -26.817,-29.734 -35.243,-48.368c-8.426,-18.634 -12.639,-39.294 -12.639,-61.979c0,-22.686 4.213,-43.345 12.639,-61.98c8.426,-18.634 20.174,-34.757 35.243,-48.368c15.07,-13.611 32.489,-24.063 52.257,-31.354c19.769,-7.292 40.996,-10.938 63.681,-10.938Zm0,290.696c23.982,-0 45.695,-5.834 65.139,-17.501c19.445,-11.666 34.838,-27.87 46.181,-48.611c11.343,-20.741 17.014,-44.722 17.014,-71.944c-0,-27.547 -5.671,-51.609 -17.014,-72.188c-11.343,-20.579 -26.736,-36.702 -46.181,-48.368c-19.444,-11.667 -41.157,-17.5 -65.139,-17.5c-23.657,-0 -45.208,5.833 -64.653,17.5c-19.444,11.666 -34.838,27.789 -46.18,48.368c-11.343,20.579 -17.014,44.641 -17.014,72.188c-0,27.222 5.671,51.203 17.014,71.944c11.342,20.741 26.736,36.945 46.18,48.611c19.445,11.667 40.996,17.501 64.653,17.501Z" style="fill-rule:nonzero;"/></g></g><path d="M422.779,642.363l4340.29,-0" style="fill:none;stroke:#00b4ff;stroke-width:34.71px;"/><g><path d="M1524.48,782.1c24.768,-0 46.469,5.034 65.104,15.104c18.634,10.069 33.217,24.247 43.749,42.534c10.533,18.287 15.799,39.583 15.799,63.889c-0,24.305 -5.266,45.544 -15.799,63.715c-10.532,18.171 -25.115,32.349 -43.749,42.534c-18.635,10.186 -40.336,15.278 -65.104,15.278l-74.306,0l-0.347,-10.416l74.653,-0c19.907,-0 37.21,-4.63 51.909,-13.889c14.699,-9.26 26.157,-22.222 34.375,-38.889c8.218,-16.667 12.326,-36.111 12.326,-58.333c0,-22.222 -4.108,-41.667 -12.326,-58.333c-8.218,-16.667 -19.734,-29.63 -34.548,-38.889c-14.815,-9.259 -32.061,-13.889 -51.736,-13.889l-78.125,0l-0,-10.416l78.125,-0Zm-68.403,-0l0,243.054l-22.569,0l-0,-243.054l22.569,-0Zm-21.528,217.707l0,25.347l-27.777,0l-0,-3.472l4.514,-0c6.018,-0 11.169,-2.141 15.451,-6.424c4.282,-4.282 6.539,-9.432 6.771,-15.451l1.041,0Zm0,-192.36l-1.041,-0c-0,-6.019 -2.199,-11.169 -6.597,-15.452c-4.399,-4.282 -9.607,-6.423 -15.625,-6.423l-4.167,-0l-0.347,-3.472l27.777,-0l0,25.347Z" style="fill-rule:nonzero;"/><g><path d="M1937.67,782.1l-0,243.054l-22.569,0l-0,-243.054l22.569,-0Zm93.75,232.29l-0,10.764l-94.792,0l0,-10.764l94.792,0Zm-14.931,-114.235l0,10.416l-79.861,0l0,-10.416l79.861,-0Zm14.931,-118.055l-0,10.763l-94.792,0l0,-10.763l94.792,-0Zm21.18,186.804l-20.139,56.25l-57.638,0l12.5,-10.764c12.268,0 22.28,-1.909 30.034,-5.729c7.755,-3.819 14.063,-9.201 18.924,-16.146c4.861,-6.944 9.143,-14.814 12.847,-23.611l3.472,0Zm-36.111,-59.027l0,22.916l-3.472,0l-0,-5.208c-0,-4.629 -1.621,-8.623 -4.861,-11.979c-3.241,-3.356 -7.176,-5.035 -11.806,-5.035l0,-0.694l20.139,-0Zm0,-31.944l0,22.916l-20.139,0l0,-0.694c4.63,-0.232 8.565,-2.026 11.806,-5.382c3.24,-3.357 4.861,-7.35 4.861,-11.979l-0,-4.861l3.472,-0Zm14.931,-86.111l-0,27.777l-3.473,0l0,-6.25c0,-5.555 -1.967,-10.358 -5.902,-14.409c-3.936,-4.051 -8.797,-6.192 -14.584,-6.424l0,-0.694l23.959,-0Zm-0,-15.972l-0,10.069l-42.361,-3.819c5.092,-0 10.474,-0.348 16.145,-1.042c5.672,-0.695 10.938,-1.505 15.799,-2.431c4.861,-0.926 8.333,-1.851 10.417,-2.777Zm-115.278,223.957l0,25.347l-27.777,0l-0,-3.472l4.513,-0c6.019,-0 11.169,-2.141 15.452,-6.424c4.282,-4.282 6.539,-9.432 6.771,-15.451l1.041,0Zm0,-192.36l-1.041,-0c-0,-6.019 -2.199,-11.169 -6.598,-15.452c-4.398,-4.282 -9.606,-6.423 -15.625,-6.423l-4.166,-0l-0.347,-3.472l27.777,-0l0,25.347Z" style="fill-rule:nonzero;"/><path d="M2316.49,776.891l201.736,215.277l3.125,37.847l-201.736,-214.929l-3.125,-38.195Zm0.695,223.61l-0,24.653l-28.819,0l-0,-3.472l6.597,-0c5.787,-0 10.764,-2.083 14.93,-6.25c4.167,-4.167 6.25,-9.143 6.25,-14.931l1.042,0Zm14.93,0c0,5.788 2.084,10.764 6.25,14.931c4.167,4.167 9.144,6.25 14.931,6.25l6.597,-0l0,3.472l-28.819,0l-0,-24.653l1.041,0Zm-15.625,-223.61l15.278,19.445l0.347,228.818l-15.972,0l0,-204.86c0,-11.806 -0.521,-21.991 -1.562,-30.556c-1.042,-8.564 -1.563,-12.847 -1.563,-12.847l3.472,0Zm204.861,5.209l-0,203.471c-0,7.407 0.231,14.525 0.694,21.354c0.463,6.829 0.984,12.384 1.563,16.667c0.578,4.282 0.868,6.423 0.868,6.423l-3.125,0l-15.625,-18.402l-0,-229.513l15.625,-0Zm27.777,-0l0,3.472l-6.25,-0c-5.787,-0 -10.763,2.025 -14.93,6.076c-4.167,4.051 -6.366,9.086 -6.597,15.104l-1.042,0l0,-24.652l28.819,-0Zm-71.527,-0l28.819,-0l0,24.652l-0.694,0c-0.232,-6.018 -2.373,-11.053 -6.424,-15.104c-4.051,-4.051 -9.085,-6.076 -15.104,-6.076l-6.597,-0l-0,-3.472Z" style="fill-rule:nonzero;"/><path d="M2891.84,783.141l0,242.013l-22.569,0l-0,-242.013l22.569,0Zm89.236,-1.389l-0,10.417l-201.041,-0l0,-10.417l201.041,0Zm-0,9.375l-0,28.125l-3.472,-0.347l-0,-5.903c-0,-5.787 -2.026,-10.648 -6.077,-14.583c-4.051,-3.935 -8.854,-6.019 -14.409,-6.25l-0,-1.042l23.958,0Zm-0,-15.625l-0,10.07l-42.361,-3.82c5.093,0 10.474,-0.347 16.146,-1.041c5.671,-0.695 10.937,-1.505 15.798,-2.431c4.861,-0.926 8.334,-1.852 10.417,-2.778Zm-110.763,224.305l-0,25.347l-27.778,0l-0,-3.472l4.514,-0c6.018,-0 11.169,-2.141 15.451,-6.424c4.282,-4.282 6.539,-9.432 6.771,-15.451l1.042,0Zm20.486,0l1.041,0c0.232,6.019 2.489,11.169 6.771,15.451c4.282,4.283 9.433,6.424 15.451,6.424l4.514,-0l0,3.472l-27.777,0l-0,-25.347Zm-86.806,-208.68l0,1.042c-5.787,0.231 -10.648,2.315 -14.583,6.25c-3.935,3.935 -5.903,8.796 -5.903,14.583l0,5.903l-3.472,0.347l0,-28.125l23.958,0Zm-23.958,-15.625c2.315,0.926 5.845,1.852 10.59,2.778c4.746,0.926 10.012,1.736 15.799,2.431c5.787,0.694 11.111,1.041 15.972,1.041l-42.361,3.82l0,-10.07Z" style="fill-rule:nonzero;"/><path d="M3296.35,777.238l102.778,245.833l-29.514,-0l-80.208,-212.847l6.944,-32.986Zm-74.652,222.569c-1.621,4.63 -1.852,8.565 -0.695,11.806c1.158,3.24 3.067,5.729 5.73,7.465c2.662,1.736 5.381,2.604 8.159,2.604l3.125,-0l0,3.472l-69.791,0l-0,-3.472l3.125,-0c5.324,-0 10.821,-1.678 16.493,-5.035c5.671,-3.356 10.359,-8.97 14.062,-16.84l19.792,0Zm74.652,-222.569l3.125,24.306l-87.152,222.569l-20.833,-0l88.888,-211.111c0,0 0.637,-1.447 1.91,-4.34c1.273,-2.894 2.778,-6.424 4.514,-10.59c1.736,-4.167 3.24,-8.218 4.514,-12.153c1.273,-3.935 1.909,-6.829 1.909,-8.681l3.125,0Zm48.958,153.125l0,10.417l-108.68,-0l0,-10.417l108.68,-0Zm15.625,69.444l28.472,0c3.473,7.87 8.102,13.484 13.889,16.84c5.787,3.357 11.343,5.035 16.667,5.035l2.778,-0l-0,3.472l-78.125,0l-0,-3.472l3.125,-0c4.398,-0 8.333,-1.91 11.805,-5.729c3.473,-3.82 3.936,-9.202 1.389,-16.146Z" style="fill-rule:nonzero;"/><path d="M3697.4,782.1l-0,243.054l-22.569,0l-0,-243.054l22.569,-0Zm93.75,232.29l-0,10.764l-94.792,0l0,-10.764l94.792,0Zm21.18,-45.486l-20.139,56.25l-57.638,0l12.5,-10.764c12.268,0 22.28,-1.909 30.034,-5.729c7.755,-3.819 14.063,-9.201 18.924,-16.146c4.861,-6.944 9.143,-14.814 12.847,-23.611l3.472,0Zm-136.458,30.903l0,25.347l-27.777,0l-0,-3.472l4.513,-0c6.019,-0 11.169,-2.141 15.452,-6.424c4.282,-4.282 6.539,-9.432 6.771,-15.451l1.041,0Zm0,-192.36l-1.041,-0c-0.232,-6.019 -2.489,-11.169 -6.771,-15.452c-4.283,-4.282 -9.433,-6.423 -15.452,-6.423l-4.513,-0l-0,-3.472l27.777,-0l0,25.347Zm20.486,-0l0,-25.347l27.778,-0l-0,3.472l-4.514,-0c-6.018,-0 -11.169,2.141 -15.451,6.423c-4.283,4.283 -6.54,9.433 -6.771,15.452l-1.042,-0Z" style="fill-rule:nonzero;"/></g></g></g></svg>