<?xml version="1.0" encoding="UTF-8" standalone="no"?><!DOCTYPE svg PUBLIC "-//W3C//DTD SVG 1.1//EN" "http://www.w3.org/Graphics/SVG/1.1/DTD/svg11.dtd"><svg width="100%" height="100%" viewBox="0 0 417 417" version="1.1" xmlns="http://www.w3.org/2000/svg" xmlns:xlink="http://www.w3.org/1999/xlink" xml:space="preserve" xmlns:serif="http://www.serif.com/" style="fill-rule:evenodd;clip-rule:evenodd;stroke-linejoin:round;stroke-miterlimit:2;"><g><rect x="42.188" y="50" width="334.732" height="328.542" style="fill:#fff;"/><g><path d="M395.833,58.333l0,300c0,20.697 -16.803,37.5 -37.5,37.5l-300,0c-20.696,0 -37.5,-16.803 -37.5,-37.5l0,-300c0,-20.696 16.804,-37.5 37.5,-37.5l300,0c20.697,0 37.5,16.804 37.5,37.5Zm-41.666,18.75c-0,-8.048 -6.535,-14.583 -14.584,-14.583l-262.5,0c-8.048,0 -14.583,6.535 -14.583,14.583l-0,262.5c-0,8.049 6.535,14.584 14.583,14.584l262.5,-0c8.049,-0 14.584,-6.535 14.584,-14.584l-0,-262.5Z" style="fill:url(#_Linear1);"/><path d="M125,8.333l0,25c0,4.6 -3.734,8.334 -8.333,8.334l-41.667,-0c-4.599,-0 -8.333,-3.734 -8.333,-8.334l-0,-25c-0,-4.599 3.734,-8.333 8.333,-8.333l41.667,0c4.599,0 8.333,3.734 8.333,8.333Z" style="fill:url(#_Linear2);"/><path d="M350,8.333l0,25c0,4.6 -3.734,8.334 -8.333,8.334l-41.667,-0c-4.599,-0 -8.333,-3.734 -8.333,-8.334l-0,-25c-0,-4.599 3.734,-8.333 8.333,-8.333l41.667,0c4.599,0 8.333,3.734 8.333,8.333Z" style="fill:url(#_Linear3);"/><rect x="50" y="125" width="325" height="41.667" style="fill:url(#_Linear4);"/></g><path d="M312.478,214.577l0,154.179c0,3.446 -2.797,6.244 -6.243,6.244l-29.137,0c-3.445,0 -6.243,-2.798 -6.243,-6.244l-0,-154.179c-0,-3.446 2.798,-6.244 6.243,-6.244l29.137,0c3.446,0 6.243,2.798 6.243,6.244Z" style="fill:#22d3ee;"/><path d="M214.577,270.855l154.179,-0c3.446,-0 6.244,2.798 6.244,6.243l0,29.137c0,3.446 -2.798,6.243 -6.244,6.243l-154.179,0c-3.446,0 -6.244,-2.797 -6.244,-6.243l0,-29.137c0,-3.445 2.798,-6.243 6.244,-6.243Z" style="fill:#22d3ee;"/><g><rect x="87.5" y="191.667" width="16.667" height="16.667" style="fill:#bbb;"/><rect x="87.5" y="225" width="16.667" height="16.667" style="fill:#ccc;"/><rect x="87.5" y="258.333" width="16.667" height="16.667" style="fill:#ddd;"/><rect x="87.5" y="291.667" width="16.667" height="16.667" style="fill:#eee;"/><rect x="120.833" y="191.667" width="16.667" height="16.667" style="fill:#ccc;"/><rect x="120.833" y="225" width="16.667" height="16.667" style="fill:#ddd;"/><rect x="120.833" y="258.333" width="16.667" height="16.667" style="fill:#eee;"/><rect x="154.167" y="191.667" width="16.667" height="16.667" style="fill:#ddd;"/><rect x="154.167" y="225" width="16.667" height="16.667" style="fill:#eee;"/><rect x="187.5" y="191.667" width="16.667" height="16.667" style="fill:#eee;"/></g></g><defs><linearGradient id="_Linear1" x1="0" y1="0" x2="1" y2="0" gradientUnits="userSpaceOnUse" gradientTransform="matrix(-416.667,416.667,-416.667,-416.667,416.667,0)"><stop offset="0" style="stop-color:#0086df;stop-opacity:1"/><stop offset="1" style="stop-color:#082f49;stop-opacity:1"/></linearGradient><linearGradient id="_Linear2" x1="0" y1="0" x2="1" y2="0" gradientUnits="userSpaceOnUse" gradientTransform="matrix(-416.667,416.667,-416.667,-416.667,416.667,0)"><stop offset="0" style="stop-color:#0086df;stop-opacity:1"/><stop offset="1" style="stop-color:#082f49;stop-opacity:1"/></linearGradient><linearGradient id="_Linear3" x1="0" y1="0" x2="1" y2="0" gradientUnits="userSpaceOnUse" gradientTransform="matrix(-416.667,416.667,-416.667,-416.667,416.667,0)"><stop offset="0" style="stop-color:#0086df;stop-opacity:1"/><stop offset="1" style="stop-color:#082f49;stop-opacity:1"/></linearGradient><linearGradient id="_Linear4" x1="0" y1="0" x2="1" y2="0" gradientUnits="userSpaceOnUse" gradientTransform="matrix(-416.667,416.667,-416.667,-416.667,416.667,0)"><stop offset="0" style="stop-color:#0086df;stop-opacity:1"/><stop offset="1" style="stop-color:#082f49;stop-opacity:1"/></linearGradient></defs></svg>