<?xml version="1.0" encoding="UTF-8" standalone="no"?><!DOCTYPE svg PUBLIC "-//W3C//DTD SVG 1.1//EN" "http://www.w3.org/Graphics/SVG/1.1/DTD/svg11.dtd"><svg width="100%" height="100%" viewBox="0 0 417 417" version="1.1" xmlns="http://www.w3.org/2000/svg" xmlns:xlink="http://www.w3.org/1999/xlink" xml:space="preserve" xmlns:serif="http://www.serif.com/" style="fill-rule:evenodd;clip-rule:evenodd;stroke-linejoin:round;stroke-miterlimit:2;"><g><rect x="50" y="128.95" width="316.667" height="245.573" style="fill:#fff;"/><g><path d="M395.833,137.5l0,220.833c0,20.697 -16.803,37.5 -37.5,37.5l-300,0c-20.696,0 -37.5,-16.803 -37.5,-37.5l0,-220.833c0,-20.697 16.804,-37.5 37.5,-37.5l300,0c20.697,0 37.5,16.803 37.5,37.5Zm-41.666,18.75c-0,-8.049 -6.535,-14.583 -14.584,-14.583l-262.5,-0c-8.048,-0 -14.583,6.534 -14.583,14.583l-0,183.333c-0,8.049 6.535,14.584 14.583,14.584l262.5,-0c8.049,-0 14.584,-6.535 14.584,-14.584l-0,-183.333Z" style="fill:url(#_Linear1);"/><path d="M108.333,141.667l0,-83.334c0,-20.696 16.804,-37.5 37.5,-37.5l125,0c20.697,0 37.5,16.804 37.5,37.5l0,83.334l-41.666,-0l-0,-64.584c-0,-8.048 -6.535,-14.583 -14.584,-14.583l-87.5,0c-8.048,0 -14.583,6.535 -14.583,14.583l0,64.584l-41.667,-0Z" style="fill:url(#_Linear2);"/></g><path d="M229.145,172.91l0,154.18c0,3.446 -2.798,6.243 -6.243,6.243l-29.137,0c-3.446,0 -6.243,-2.797 -6.243,-6.243l-0,-154.18c-0,-3.446 2.797,-6.243 6.243,-6.243l29.137,-0c3.445,-0 6.243,2.797 6.243,6.243Z" style="fill:#22d3ee;"/><path d="M131.244,229.188l154.179,0c3.446,0 6.244,2.798 6.244,6.244l-0,29.136c-0,3.446 -2.798,6.244 -6.244,6.244l-154.179,-0c-3.446,-0 -6.244,-2.798 -6.244,-6.244l0,-29.136c0,-3.446 2.798,-6.244 6.244,-6.244Z" style="fill:#22d3ee;"/></g><defs><linearGradient id="_Linear1" x1="0" y1="0" x2="1" y2="0" gradientUnits="userSpaceOnUse" gradientTransform="matrix(-416.667,416.667,-416.667,-416.667,416.667,0)"><stop offset="0" style="stop-color:#0086df;stop-opacity:1"/><stop offset="1" style="stop-color:#082f49;stop-opacity:1"/></linearGradient><linearGradient id="_Linear2" x1="0" y1="0" x2="1" y2="0" gradientUnits="userSpaceOnUse" gradientTransform="matrix(-416.667,416.667,-416.667,-416.667,425,0)"><stop offset="0" style="stop-color:#0086df;stop-opacity:1"/><stop offset="1" style="stop-color:#082f49;stop-opacity:1"/></linearGradient></defs></svg>