<?xml version="1.0" encoding="UTF-8" standalone="no"?><!DOCTYPE svg PUBLIC "-//W3C//DTD SVG 1.1//EN" "http://www.w3.org/Graphics/SVG/1.1/DTD/svg11.dtd"><svg width="100%" height="100%" viewBox="0 0 417 417" version="1.1" xmlns="http://www.w3.org/2000/svg" xmlns:xlink="http://www.w3.org/1999/xlink" xml:space="preserve" xmlns:serif="http://www.serif.com/" style="fill-rule:evenodd;clip-rule:evenodd;stroke-linejoin:round;stroke-miterlimit:2;"><g><g><path d="M62.5,395.833l-41.667,0l0,-337.5c0,-20.696 16.804,-37.5 37.5,-37.5l300,0c20.697,0 37.5,16.804 37.5,37.5l0,337.5l-41.666,0l-0,-318.75c-0,-8.048 -6.535,-14.583 -14.584,-14.583l-262.5,-0c-8.048,-0 -14.583,6.535 -14.583,14.583l0,318.75Z" style="fill:url(#_Linear1);"/></g><path d="M191.667,325l-0,70.833l-33.334,0l0,-104.166l100,-0l0,104.166l-33.333,0l0,-70.833l-33.333,0Z" style="fill:url(#_Linear2);"/><g><rect x="91.667" y="91.667" width="33.333" height="33.333" style="fill:#bbb;"/><rect x="158.333" y="91.667" width="33.333" height="33.333" style="fill:#bbb;"/><rect x="225" y="91.667" width="33.333" height="33.333" style="fill:#bbb;"/><rect x="291.667" y="91.667" width="33.333" height="33.333" style="fill:#bbb;"/></g><g><rect x="91.667" y="158.333" width="33.333" height="33.333" style="fill:#bbb;"/><rect x="158.333" y="158.333" width="33.333" height="33.333" style="fill:#bbb;"/><rect x="225" y="158.333" width="33.333" height="33.333" style="fill:#bbb;"/><rect x="291.667" y="158.333" width="33.333" height="33.333" style="fill:#bbb;"/></g><g><rect x="91.667" y="225" width="33.333" height="33.333" style="fill:#bbb;"/><rect x="158.333" y="225" width="33.333" height="33.333" style="fill:#bbb;"/><rect x="225" y="225" width="33.333" height="33.333" style="fill:#bbb;"/><rect x="291.667" y="225" width="33.333" height="33.333" style="fill:#bbb;"/></g></g><defs><linearGradient id="_Linear1" x1="0" y1="0" x2="1" y2="0" gradientUnits="userSpaceOnUse" gradientTransform="matrix(-416.667,416.667,-416.667,-416.667,416.667,0)"><stop offset="0" style="stop-color:#0086df;stop-opacity:1"/><stop offset="1" style="stop-color:#082f49;stop-opacity:1"/></linearGradient><linearGradient id="_Linear2" x1="0" y1="0" x2="1" y2="0" gradientUnits="userSpaceOnUse" gradientTransform="matrix(-41.6667,104.167,-104.167,-41.6667,233.333,291.667)"><stop offset="0" style="stop-color:#0086df;stop-opacity:1"/><stop offset="1" style="stop-color:#082f49;stop-opacity:1"/></linearGradient></defs></svg>